<svg xmlns="http://www.w3.org/2000/svg" width="963" height="383"><path fill="#010101" d="M229 45v2l10 1v2l3.438.25c4.97.596 9.117 2.538 13.562 4.75v2l6 1v2l1.563.25c3.482 1.071 6.309 2.885 9.437 4.75v2l3 1v2l1.688.25c5.132 1.665 8.1 5.635 11.312 9.75a282 282 0 0 0 5 5c2 2 2 2 2 5l3 1c1.994 2.66 4 5.612 4 9h2l1 5h2c3.095 7.75 5.864 15.503 8.203 23.516.562 2.401.562 2.401 1.797 3.484 1.027 5.812 1.15 11.7 1.133 17.586l.003 2.37q0 2.464-.006 4.927c-.005 2.479 0 4.958.007 7.437.003 8.278-.13 16.45-1.137 24.68h-2l-1 12h-2l-.078 1.8c-.474 6.933-2.301 12.788-4.922 19.2h-2l-1 6h-2l-.25 2.5c-.914 4.268-2.672 7.692-4.75 11.5h-2l-1 5h-2l-.812 2.688c-1.113 3.103-2.29 5.623-4.188 8.312h-2l-1 3h-2l-.187 1.688C282 265 282 265 279.5 267.438c-2.746 2.814-3.233 3.734-3.5 7.562l-.152 2.023c-.15 2.44-.15 2.44.152 5.977l3 2c4.118 6.364 6.376 12.285 6 20h-2l-.25 3.125c-.95 4.907-2.363 8.262-6.617 11.137-3.751 2.017-6.787 3.281-11.133 2.738v6h-2l.25 3.125c-.291 4.514-1.383 6.434-4.25 9.875l-3 1-1 3c-5.606 2.992-11.67 3.434-17.897 3.372l-2.541.011c-2.742.008-5.484-.005-8.226-.02q-2.881 0-5.763.002-6.019 0-12.038-.029c-5.132-.023-10.264-.023-15.396-.016-3.962.003-7.924-.004-11.885-.013q-2.84-.006-5.677-.004-3.969-.002-7.939-.028l-2.346.007c-6.277-.06-11.738-1.172-17.292-4.282v-2l-3-1v-3l-3-1c-1.005-3.015-1.103-5.042-1.062-8.187l.027-2.731L141 324h-2v-2l-3.125-.25c-5.679-1.1-8.715-3.213-12.187-7.812-2.646-4.606-2.876-8.052-2.938-13.313l-.078-3.96c.438-4.896 1.88-7.34 5.473-10.626 3.043-3.345 2.576-6.509 2.449-10.855-1.13-6.058-4.94-10.65-9.324-14.836C118 259 118 259 118 257h-2l-1-5-3-1c-1.168-1.523-1.168-1.523-2.187-3.375l-1.043-1.836C108 244 108 244 108 241h-2a486 486 0 0 1-2.5-4.75l-1.406-2.672C101 231 101 231 101 227h-2c-8.432-20.364-8.432-20.364-8-29h-2c-.872-2.995-1.108-5.636-1.062-8.75l.027-2.422L88 185h-2a229.5 229.5 0 0 1 0-48h2l-.145-3c.004-4.293 1.106-7.957 2.457-12l.647-2.04c1.436-4.441 3.147-8.694 5.041-12.96h2c.095-.535.19-1.07.29-1.621.93-3.115 2.44-5.64 4.085-8.442l1.836-3.16c1.471-2.284 2.686-4.08 4.789-5.777h2l.25-1.75c.968-2.904 2.437-4.287 4.75-6.25h2l1-3h2l.813-1.812c1.197-2.206 2.232-3.624 4.187-5.188h3v-2c2.332-2.891 5.248-4.353 8.5-6.062 2.944-1.556 5.727-3.09 8.5-4.938h3v-2c8.015-3.893 16.998-8 26-8v-2c18.285-1.95 35.742-2.138 54 0m-45.617 13.094-3.086.683-3.172.723-3.242.723q-3.945.88-7.883 1.777v2l-6 1v2l-3.437.375L153 68l-1 2-6 2-1 2-3 1v2l-1.687.813L138 79l-2.312 1.125c-3.252 2.268-5.513 4.936-8.055 7.957C126 90 126 90 123.813 92.125c-2.016 1.972-2.016 1.972-3.938 5.063C118 100 118 100 116 101a186 186 0 0 0-3 6 305 305 0 0 1-2.043 3.656l-1.064 1.91a323 323 0 0 1-2.196 3.868c-2.221 4.03-3.142 6.839-2.697 11.566h-2c-5.357 14.97-4.397 30.348-4 46l3.365.044c4.111.058 8.222.135 12.333.218q2.672.051 5.343.084c2.557.034 5.113.086 7.67.142l2.421.02c2.244.06 2.244.06 5.868.492 2.336 3.504 2.25 5.167 2.375 9.313.464 7.171.464 7.171 4.625 12.687 3.605.813 3.605.813 7 1l1 2v-2l5-1v-2h2l1-4h2c.09-1.481.09-1.481.184-2.992l.254-3.883c.08-1.276.162-2.552.246-3.867C162 177 162 177 163 175l32-1q.25-10.385.482-20.77.08-3.534.166-7.069.122-5.074.23-10.15l.083-3.2.06-2.972.061-2.618c.016-2.396.016-2.396-1.082-5.221l-14-2v-2c-1.27-1.687-1.27-1.687-3-3h-3v-3l-2-1c-2.211-6.633-2.32-16.237.625-22.687 2.27-3.588 4.42-5.578 8.375-7.313 4.33-.604 8.632-.87 13-1a2488 2488 0 0 0 .563-10.375l.17-2.984.146-2.852.143-2.634c.135-2.206.135-2.206-1.022-4.155-4.061-.105-7.656.204-11.617 1.094M209 58a156 156 0 0 0-.281 6.59l-.056 1.999q-.088 3.174-.163 6.349-.102 4.17-.219 8.34l-.092 3.757C208 88 208 88 207 90c-1.75.379-1.75.379-4 .563l-2.434.218L198 91q-2.532.274-5.062.563L189 92v2h-3c-1.198 3.593-1.33 6.227-1 10 1.43 2.37 1.43 2.37 4 4 2.894.29 5.38.382 8.25.25l2.258-.055c1.831-.047 3.662-.118 5.492-.195v2h3l1 64h26c1.356-1.125 1.356-1.125 1.063-4.062L236 167h2c2.316-3.221 2.316-3.221 3-7h2v-2c7.064-3.784 14.948-4.04 22.75-2.434 4.33 1.326 4.33 1.326 6.25 2.434l1 3h2q.721 2.124 1.438 4.25l.808 2.39c.67 2.095 1.22 4.227 1.754 6.36h26c.822-3.29 1.128-5.574 1.133-8.887l.004-2.845-.012-2.956.012-2.896c.617-9.817.617-9.817-2.137-18.416a274 274 0 0 1-1.562-8.062A1888.029 1888.029 0 0 1 301 122l-2.001-.001-.312-2.125c-.791-3.306-2.12-5.857-3.688-8.875a555 555 0 0 1-2.937-6.95c-1.116-2.151-2.193-3.516-4.063-5.05h-2l-.25-1.75c-.968-2.904-2.437-4.287-4.75-6.25h-2l-1-4h-2v-2l-1.937-.312L272 84l-1-3c-3.128-3.754-7.206-6.112-12-7v-2a486 486 0 0 0-4.75-2.5l-2.672-1.406C248.853 66.74 248.853 66.74 245 67v-2l-6-1v-2l-3-.586-4-.789-2.086-.411c-3.523-.704-7.01-1.458-10.476-2.401-5.491-1.523-5.491-1.523-10.438.187m44 110c-3.909 4.484-4.498 8.04-4.727 13.926L248 184l-2 1v2l-3.289-.016q-6.019-.026-12.037-.039-2.609-.008-5.218-.02c-2.494-.013-4.989-.018-7.483-.023l-2.37-.015c-1.869 0-3.736.051-5.603.113-1.418 1.189-1.418 1.189-1.098 4.598q.01 2.232.036 4.464l.013 2.3q.02 2.818.049 5.638l13 1v2l3 1c4.584 4.137 6.797 6.666 7.336 12.863q.035 2.224.039 4.45l.074 2.224c.03 5.599-1.246 8.861-4.449 13.463l-2 1v2l-2.437.438c-2.484.303-2.484.303-3.563 1.562-1.846.395-3.702.742-5.562 1.063l-3.067.535L209 248q-.037 6.354-.055 12.708-.008 2.16-.02 4.324a1671 1671 0 0 0-.023 6.21l-.016 3.777c-.094 2.909-.094 2.909 1.114 4.981q3.875.08 7.75.125l2.21.05c3.844.036 6.786 0 10.04-2.175v2h4v-2q3.219.21 6.438.438l3.62.246C247 279 247 279 248 280c2.186.073 4.375.084 6.563.063l3.628-.028L261 280c1.42-2.838 1.418-5.599 1.75-8.75.833-6.12 1.69-9.135 6.25-13.25l1.563-1.562L272 255c3.281-3.485 3.281-3.485 4-8h2l1-4h2q1.259-2.4 2.5-4.812l1.406-2.708c1.296-2.486 1.296-2.486 1.094-5.48h2l1-5h2l.586-1.863.789-2.45.773-2.425C294 216 294 216 296 213c.167-2.625.167-2.625 0-5h2l1-8h2q.54-2.967 1.063-5.937l.597-3.34L303 188c-1.146-1.373-1.146-1.373-4.235-1.114q-2.15 0-4.3.016l-2.283.005c-2.415.005-4.83.018-7.245.03q-2.45.008-4.9.014-6.018.017-12.037.049v-2h-2l.07-2.012c.298-6.79.298-6.79-2.07-12.988-3.997-2.972-6.2-3.6-11-2m-151 19 1 11h2l1 9h2l.25 2.875c.69 5.015 2.753 9.51 4.75 14.125h2l1 6h2l.313 2.21c.752 3.055 1.867 4.869 3.687 7.415 1.812 2.553 3.002 4.382 4 7.375l2 1 1 3h2l.688 2.75c1.525 3.777 3.155 4.786 6.312 7.25 3.875 5.597 4.168 12.404 5 19 2.041.055 4.083.093 6.125.125l3.445.07c3.488-.198 6.185-.943 9.43-2.195v2q3.5.062 7 0l1-1c3.5-.125 3.5-.125 7 0l1 1c2.863.073 5.7.092 8.563.063l2.443-.014q2.997-.02 5.994-.049l.044-3.808c.058-4.657.135-9.314.218-13.972q.051-3.024.084-6.05c.034-2.896.086-5.793.142-8.69l.02-2.737.06-2.547.033-2.24c.517-2.534 1.337-3.425 3.399-4.956 2.702-.3 5.233-.466 7.938-.5 5.47-.02 5.47-.02 10.566-1.844 1.831-1.655 1.831-1.655 1.496-4.656h2c.418-2.832.418-2.832 0-6-3.922-4.031-6.964-4.942-12.453-5.098l-3.797.036-3.828.027L198 217v-2h-2l.016-2.355q.029-5.26.047-10.52l.025-3.707.01-3.535.016-3.27c.065-2.595.065-2.595-1.114-4.613-3.292-.029-6.583-.047-9.875-.062l-2.84-.026-2.715-.01-2.507-.016c-2.127-.02-2.127-.02-4.063 1.114-.317 1.894-.317 1.894-.375 4.125-.507 5.685-2.517 9.345-6.187 13.75C165 207 165 207 162 208v2c-7.487 1.402-17.134 3.073-24.125-.687-2.78-2.236-4.78-4.442-6.875-7.313l-2-1-1-3h-2l-.184-2.152-.254-2.786c-.08-.916-.162-1.833-.246-2.777-.076-2.247-.076-2.247-1.316-3.285a83 83 0 0 0-4.91-.098l-2.998.01-3.154.025-3.167.014q-3.885.02-7.771.049m38 105v2l-4 1-1 4h-2v4h2l1 4 6 1v2h23v-2h94v2h5v-2l5-1v-3h2v-6h-2l-1-4h-3v-2zm15 30v2h-2v3h2l.313 2.375c.463 2.955.463 2.955 3.687 4.625 2.782.205 5.465.294 8.248.29l2.548.02c2.784.02 5.568.024 8.352.026l5.803.02q6.085.017 12.171.015c5.198 0 10.395.027 15.593.061 3.996.022 7.992.026 11.988.025q2.874.004 5.748.027c2.681.02 5.361.014 8.043.002l2.396.034c3.712-.042 5.92-.404 9.114-2.355 2.284-2.066 2.284-2.066 2.434-5.29-.166-2.998-.166-2.998-2.438-4.875a123 123 0 0 0-8.856-.227h-2.78c-3.04 0-6.08.016-9.122.032l-6.314.008c-5.547.008-11.093.028-16.64.05-5.657.02-11.314.03-16.972.04-11.105.02-22.21.055-33.316.097"/><path d="M422 85c4-.088 8-.14 12-.187l3.41-.077c6.62-.058 11.57.453 17.59 3.264v2l1.75.313c2.631.803 4.237 1.818 6.25 3.687v3h2v14h-2l-.312 1.813c-1.094 3.48-2.842 4.73-6 6.437-4.268 1.191-7.341.348-11.329-1.422C443 116 443 116 442.33 113.152l-.079-3.215c-.006-4.123-.006-4.123-1.25-7.937-3.223-1.074-5.615-1.133-9-1.125l-3.187-.008c-2.894.01-2.894.01-5.813 1.133l-2 3h-2v15l5 2c2.813 1.5 2.813 1.5 5 3v2l6 1v2l1.758.332c4.84.982 8.896 2.216 13.242 4.668v2l5 1v2l1.75.25c2.928.976 4.302 2.385 6.25 4.75v3h2c5.388 8.62 7.29 16.496 5.063 26.625A1244 1244 0 0 1 469 179c-.34 1.665-.677 3.331-1 5h-2l-.312 2.188c-1.37 5.599-4.618 9.767-9.395 12.949-2.928 1.756-4.83 2.863-8.293 2.863v2l-8 1v2c-4.167.088-8.333.14-12.5.188l-3.555.076c-6.736.056-11.827-.38-17.945-3.264v-2l-2.125-.25c-4.934-1.287-8.027-3.724-11.25-7.625-1.76-3.386-1.983-5.369-1.625-9.125h-2v-11h2l-.312-3.062c.372-4.691 1.844-7.724 5.312-10.938h3v-2c4.97-2.434 8.346-3.346 14-3v2h5l1 3 3 1c.49 7.217.49 7.217-1.875 11-2.125 2-2.125 2-4.125 2-.551 6.318-.551 6.318 2 11.938l2 2.062v2c2.229.081 4.458.14 6.688.188l3.761.105c3.77-.311 5.485-1.188 8.551-3.293h2c2.373-5.976 3.98-11.535 3-18-1.37-2.871-1.37-2.871-3-5v-2l-1.687-.812c-2.525-1.297-4.95-2.613-7.313-4.188v-2l-7-1v-2l-1.793-.332c-4.56-.915-8.446-1.757-12.207-4.668v-2l-5-1v-2l-5-2v-2l-3-1v-3h-2c-2.583-6.365-3.71-12.115-3-19l1-1c.393-1.679.74-3.369 1.063-5.062l.535-2.786L396 104h2l1-4h2l.754-1.797c1.426-2.52 2.862-3.741 5.183-5.453l2.09-1.578C411 90 411 90 414 90v-2l8-1z"/><path fill="#010101" d="M829 107v23h19v-2h8v2l3 1c3.053 5.519 3.636 10.763 4 17h2l.297 1.836c.825 4.625 1.86 8.834 3.703 13.164 2.084 4.899 3.152 9.759 4 15l2-1c.652-2.025.652-2.025 1-4h2l.375-3.187c.543-3.312 1.339-5.758 2.625-8.813 1.592-5.891 1.814-13.14 0-19-2.395-1.325-2.395-1.325-5-2l-2-2c.225-2.328.83-3.746 2.125-5.687 2.78-1.946 5.554-2 8.875-2.313v-2a63 63 0 0 1 10.688-1.25l2.261-.078C900 127 900 127 901.75 128.07c3.444 5.317 1.662 15.932.438 21.93-1.016 3.849-2.502 7.399-4.188 11h-2l-1 6h-2l-.437 2.313C892 172 892 172 891 175h-2l-1 6h-2l-1 6h-2l-.437 2.313C882 192 882 192 881 195h-2l-1 7h-2l-1 7h-2c-1.163 8.702-1.116 17.368-1.062 26.125q.008 2.172.013 4.344.017 5.265.049 10.531-2.37.059-4.742.094l-2.668.052c-3.745-.211-6.286-1.422-9.59-3.146v-2l-4-1v-2h-2v-14h2l.438-2.312C852 223 852 223 853 220h2l1-7h2l1-6h2v-8h-2l-1-8h-2l-1-9h-2c-1.193-3.877-2-6.916-2-11h-2l-1-9h-2c-1.915-4.963-3.61-9.866-5-15h-2l-1-5h-9q-.037 10.027-.055 20.056-.008 3.401-.02 6.802c-.045 11.853-.031 23.623.956 35.44L830 207c-1 1-1 1-4.02 1.133l-3.793-.008-3.769.008c-2.706-.105-4.861-.322-7.418-1.133v-2l-1.937-.437C807 204 807 204 806 203c-.1-2.332-.13-4.666-.125-7l-.008-3.875C806 189 806 189 807 188c1.171-10.439 1.128-20.949 1.063-31.437q-.008-2.138-.014-4.276-.017-5.144-.049-10.287l-6 2c-1.322-2.645-1.097-4.678-1.062-7.625l.027-3.04L801 131l8-1v-16h2l1-3c6.241-4.648 8.393-4 17-4M672 91l1 6c-4.75 4-4.75 4-7 4l-.375 2.188C665 106 665 106 664 108.312c-2.575 6.92-2.12 14.413-2 21.688l5.957-.098C670 130 670 130 673 131v2l1.758-.656c4.568-1.628 8.32-2.723 13.242-2.344v-2h8v2l3 1q-.177 7.663-.372 15.326-.066 2.609-.125 5.218-.088 3.742-.187 7.483l-.05 2.37c-.152 5.49-.152 5.49-1.266 6.603a88 88 0 0 0-.316 4.91l-.127 2.998-.12 3.155-.13 3.166q-.16 3.885-.307 7.771h2l1 16c-4.5 2.25-6.344 2.08-11.25 1.625l-3.828-.336L681 207v-2l-5-1c-1.16-8.068-1-16.035-.703-24.152.078-2.173.145-4.348.21-6.522.353-10.633.353-10.633 1.077-14.21L677 157l-1-1c-.285-2.776-.448-5.551-.621-8.336-.215-2.886-.215-2.886-2.379-5.664-3.584-.25-3.584-.25-7 0v2h-5l.013 2.39q.06 11.166.09 22.333.015 5.74.048 11.48.032 5.544.039 11.088.005 2.111.021 4.222c.015 1.977.016 3.954.016 5.93l.014 3.406c-.256 3.346-1.069 6.018-2.241 9.151-.35 1.33-.691 2.66-1 4h-2l-1 4h-2l-.625 2.188c-1.863 3.81-3.924 5.347-7.375 7.812h-3v2c-3.892 1.297-6.894 1.13-11 1l-2-1v-3h2l.313-2.562c.758-3.791 2.114-6.913 3.687-10.438 1.722-4.571 2.554-9.045 3.125-13.875l.262-2.086q.313-2.519.613-5.039h2l-.018-3.049c-.043-11.013.184-22.006.518-33.013l.145-4.971q.173-5.984.355-11.967h-8c-1.177-2.353-1.166-3.88-1.187-6.5l-.043-2.406C633 133 633 133 635 131a90 90 0 0 1 6-1l.028-2.292c.054-3.445.138-6.888.222-10.333l.043-3.605c.312-11.181.312-11.181 4.707-15.77 2.75-.875 2.75-.875 5-1v-2c7.18-3.489 13.041-4.545 21-4M490 88h3v2l5 1 1 54h2l.25-1.75c.968-2.904 2.437-4.287 4.75-6.25h2l1-3h3v-2c3-2 3-2 6-2v-2h8v2l2.938.438C532 131 532 131 533 132c.563 2.25.563 2.25 0 5-3.354 2.878-6.53 5-11 5v2c-1.75 1.508-1.75 1.508-4 3.125l-2.25 1.633L514 150l1.61.883c4.844 2.811 7.742 5.152 10.39 10.117v2h2l.402 2.152.535 2.786.528 2.777c.312 2.238.312 2.238 1.535 3.285.214 2.163.37 4.33.5 6.5.356 5.527.836 11.002 1.5 16.5h2c2.042 2.905 3 4.401 3 8h-2v2c-2.563.081-5.124.14-7.687.188l-2.186.076c-4.56.062-7.547-.348-11.127-3.264v-2l-3-1c-1.297-3.243-1.17-6.666-1.246-10.121l-.1-3.584q-.09-3.726-.172-7.453l-.103-3.588-.076-3.271c-.307-3.024-1.122-5.206-2.303-7.983v-3h-6c-1.723 3.295-3.294 6.331-4 10h-2l.983 1.652c1.214 2.802 1.276 4.87 1.283 7.918l.007 3.215-.023 3.34.023 3.363-.007 3.207-.007 2.938C498 200 498 200 496 202h-3l-1 3c-3.794 2.065-7.048 2.219-11.312 2.125l-3.239-.055L475 207c-.142-9.349-.007-18.697 1-28l1-1c.124-2.055.178-4.114.205-6.172l.03-1.951q.047-3.207.081-6.412l.063-4.435q.082-5.847.153-11.694.077-5.963.161-11.924.162-11.706.307-23.412h-2l-.937-3.312A170 170 0 0 0 473 102h-2v-7c5.339-2.966 9.966-4.62 15.996-5.605 1.995-.2 1.995-.2 3.004-1.395M710.496 126.77c1.456.02 1.456.02 2.942.043l2.933.019C719 127 719 127 722 128l1 2c3.067-.438 5.798-.92 8.688-2.062 6.555-1.856 13.688-1.37 20.312.062v2l1.688.25c4.28 1.388 6.859 4.07 9.312 7.75.125 3.188.125 3.188 0 6h2v17h-2v34h2c3.065 6.253 3.065 6.253 2.75 9.875C767 207 767 207 766 208c-5.717.331-11.39.213-17-1v-2l-4-1v-2l-3-1c-1.585-4.756-1.185-9.582-1.187-14.562l-.038-3.174c-.012-6.597.402-12.892 2.225-19.264l1-1c.293-2.425.516-4.816.688-7.25l.181-2.027c.295-4.106.078-7.072-1.869-10.723-2.046-1.731-3.378-2.033-6.04-1.89-1.994.239-3.978.56-5.96.89-2.537 5.823-2.238 11.413-2.16 17.637l.016 3.383c.017 3.556.049 7.112.082 10.667q.042 5.35.07 10.7.019 3.326.054 6.651l.02 3.035.025 2.67C729 199 729 199 728 202h-3v2l-5 1v2h-14c-1.028-4.11-.947-6.991-.625-11.187l.273-3.793C706 189 706 189 707 188c.25-2.383.431-4.735.563-7.125l.126-2.257c1.495-23.827 1.495-23.827-1.35-47.36L706 129c2-2 2-2 4.496-2.23M622 88l6 2c1.193 5.628 1.14 11.131 1.13 16.855l.005 3.278q.004 5.35-.002 10.699 0 3.716.003 7.433.001 7.779-.006 15.557-.006 8.004 0 16.008.009 9.658.004 19.317 0 3.687.002 7.374.003 5.136-.007 10.271l.007 3.106-.009 2.808-.001 2.454C629 207 629 207 628 208c-5.399.346-10.7.116-16-1v-2l-4-1v-2h-2q-.04-4.22-.062-8.437l-.026-2.432c-.009-2.044.036-4.088.088-6.131l1-1c1.857-14.822 1.117-30.007 1.069-44.912q-.014-5.271-.02-10.541-.016-10.274-.049-20.547h-2l-.812-2.937L604 102l-3-1c.063-2.75.063-2.75 1-6 6.57-4.675 12.117-5.134 20-5z"/><path fill="#020202" d="M595 90c1 1 1 1 1.123 2.841l-.003 2.455.004 2.81-.01 3.105v3.252c0 3.566-.009 7.131-.016 10.697l-.005 7.395q-.006 9.753-.024 19.505-.014 9.944-.02 19.887-.016 19.527-.049 39.053h2c.125 2.375.125 2.375 0 5-2 2-2 2-4.46 2.23l-2.915-.042-2.898-.02c-2.393-.147-4.437-.49-6.727-1.168v-2l-2.875-.312C575 204 575 204 573 201c-.23-2.445-.23-2.445-.187-5.125l.019-2.695C573 191 573 191 574 190c1.688-14.711 1.188-29.709 1.185-44.497 0-3.574.014-7.148.031-10.722q.015-4.167.013-8.333c.001-1.955.012-3.91.023-5.865l-.01-3.594.005-3.148c-.26-2.984-1.022-5.125-2.247-7.841a91 91 0 0 1-1-4h-3v-5h2l1-3c6.73-4.993 15.006-4.67 23-4"/><path fill="#010101" d="m147 103.75 2.125-.078L151 104c2 3 2 3 2 6h2a665 665 0 0 1 1.5 4.313l.844 2.425C158 119 158 119 158 122l3.613-.07q2.35-.029 4.7-.055c.785-.017 1.57-.034 2.38-.05l2.295-.02 2.11-.032C175 122 175 122 178 124c.547 1.84.547 1.84.75 3.938l.234 2.09C179 132 179 132 178 135h-3v2c-1.46 1.29-1.46 1.29-3.375 2.625l-1.898 1.352C168 142 168 142 166 142v9h2c1.102 4.41 1.077 8.484 1 13l-3 1v2h-8v-2l-3-1v-2c-3.296-1.413-6.405-2.716-10-3-1.646 1.396-1.646 1.396-3 3h-3l-1 3h-2v2c-1.457.081-2.916.14-4.375.188l-2.46.105L127 167c-2.073-3.11-2.274-3.891-2.25-7.437l-.016-2.31c.294-2.493 1.135-4.03 2.266-6.253.448-2.356.448-2.356.625-4.75l.227-2.422L128 142l-1.844-.918c-4.71-2.364-8.452-4.401-11.156-9.082-.19-2.988.266-5.016 1-8 3.047-2.031 3.601-2.247 7.012-2.195l2.295.02 2.38.05 2.417.027c1.965.024 3.93.06 5.896.098v-2h2l1-10h2v-5c2.213-1.106 3.547-1.196 6-1.25M146 133l-3 5h2v4h4v-2h2c-.398-2.886-.79-3.822-3.062-5.75z"/><path d="M231 88c3.891-.3 6.725.178 10.313 1.563 4.924 1.792 8.569 1.33 13.687.437v-2h7v2l2.563-.375c4.785.522 7.365 2.752 10.437 6.375.938 2.875.938 2.875 1 5h2c.081 2.397.14 4.79.188 7.188l.076 2.04c.065 4.444-.46 7.276-3.264 10.772h-2l-1 4h-2l-.812 1.813c-1.187 2.185-2.284 3.6-4.188 5.187h-2l-.625 1.625c-1.908 3.295-4.423 5.969-7.375 8.375h-2l-.937 1.938C251 146 251 146 250 147c-3.156.49-4.974.76-8 0-2.773-2.344-4.815-5.118-7-8l-2.437-2.312C231 135 231 135 231 132l-1.625-.625c-3.295-1.908-5.969-4.423-8.375-7.375v-2l-3-1v-2h-2c-1.167-3.695-1.133-7.207-1.125-11.062l-.008-3.723c.137-3.32.392-5.345 2.57-7.903C219 95 219 95 221 95l1-3c3.008-2.041 5.422-2.199 9-2zm1 14v2l-3 1c-.969 2.15-.969 2.15-1 5 1.832 3.681 4.305 6.444 7.5 9 2.313 1.85 3.544 3.34 5.188 5.75L243 128h2v2c3.018.35 3.018.35 4.613-1.574l1.7-2.113c2.155-2.588 4.21-4.876 6.875-6.938 3.07-2.593 4.984-4.793 6.812-8.375-.155-3.958-.79-5.686-3-9-3.265-.417-5.17-.609-7.875 1.375-1.315 1.57-1.315 1.57-1.125 3.625l-3.812.563-2.145.316C245 108 245 108 242 107q-1.53-1.47-3-3c-2.954-2.37-2.954-2.37-7-2"/><path fill="#010101" d="M148 218q3.969-.04 7.938-.062l2.287-.026c1.925-.009 3.85.036 5.775.088l1 1c2.04.106 4.083.185 6.125.25 6.25.44 9.435 1.31 13.875 5.75.938 2.813.938 2.813 1 5h2c1.82 5.46 1.377 11.49 0 17h-2l-.187 1.75c-1.66 4.597-6.675 7.013-10.813 9.25h-2l.07 2.555.055 3.32.07 3.305C173 270 173 270 171 272c-2.688.27-5.291.087-8 0l-.812-1.937c-1.075-2.394-1.075-2.394-4.188-3.063v-2l-3-1v-2l-1.812-.875C151 260 151 260 148 258c-1.99-.39-3.99-.732-6-1v-2l-4-1v-2l-1.812-.687c-2.876-1.726-3.718-3.302-5.188-6.313-.776-5.912-1.19-12.667 1.563-18.125 3.03-3.574 5.128-5.018 9.437-6.875 3.438-.25 3.438-.25 6 0zm-3 17c-1.086 1.843-1.086 1.843-1 4 1.562 2.982 2.871 4.634 6.133 5.691q2.314.488 4.648.852c2.342.482 4.134 1.305 6.219 2.457l1-3 10-1v-2l3-1c.39-4.069.39-4.069-1.172-7.674-2.496-1.81-4.2-1.714-7.266-1.724l-3.21-.012-3.352.035-3.352-.035-3.21.012-2.942.01c-2.893.45-3.743 1.097-5.496 3.388M785 128h10c1.491 2.982 1.13 6.026 1.114 9.295v2.277c0 2.49-.009 4.978-.016 7.467l-.005 5.17q-.006 6.811-.024 13.623-.014 6.947-.02 13.895-.016 13.636-.049 27.273-2.167.257-4.336.508c-1.207.14-1.207.14-2.439.285-3.566.332-6.706-.217-10.225-.793v-2l-2.437-.375L774 204c-1.342-2.684-1.13-4.775-1.133-7.777l-.004-3.494.012-3.667-.012-3.654.004-3.498.004-3.214C773 176 773 176 774 173c.26-3.912.231-7.83.25-11.75l.063-3.25c.03-6.1-.242-10.663-3.313-16l-2-1v-7c10.374-4.592 10.374-4.592 16-4zM554 128h8c1.46 2.92 1.12 5.483 1.114 8.745v2.099c0 2.294-.009 4.588-.016 6.883l-.005 4.766q-.006 6.28-.024 12.557-.014 6.405-.02 12.81-.016 12.57-.049 25.14h2v4h-2v2c-6.706 1.078-12.637 1.646-18.937-1.437C542 204 542 204 541 202c-.104-2.248-.13-4.5-.125-6.75l.004-2.182c.034-5.165.191-10.32.383-15.482l.147-3.97q.15-3.921.323-7.842c.29-7.358.173-14.462-.732-21.774h-2c-2.285-1.67-2.926-2.641-3.5-5.437.5-2.563.5-2.563 2.563-4.75 5.144-3.175 9.94-4.106 15.937-3.813z"/><path fill="#1B1B1B" d="M391 285h9v2l1.938.438C404 288 404 288 405 289c1.34.156 2.688.25 4.035.316l2.451.127 2.577.12 2.587.13q3.175.159 6.35.307l1-5h11l1 6 2-1c2.082-.097 4.166-.13 6.25-.133l3.781-.004 3.969.012 3.969-.012 3.781.004 3.484.004C466 290 466 290 468 291v11h-2v2h-28v-2h-3v2h-17v-2h-2v2h-5v-2h-2l-1 2q-4.47.04-8.937.063l-2.577.025-2.45.01-2.27.016C390 304 390 304 389 303a210 210 0 0 1-.062-8.062l.013-2.3q.02-2.818.049-5.638h2zm30 11v2h2v-2z"/><path fill="#292929" d="M539 285v2h2v3c3.71.292 7.299.448 11 0a141 141 0 0 0 5-5c3.044-.44 5.947-.3 9 0v2h2v3h11v-3h2v-2h5v2h6l1 3h12l1 4h2v4h-2l-1 6h-17v-2h-2v2h-11l-.375-2.937L574 298l-2-1v7h-24l-1-3-1 3h-12c-.847-5.08-1.422-9.85-1-15 3-4 3-4 6-4m7 12 2 2v-2z"/><path fill="#0A0A0A" d="M618 285c7.714 1.714 7.714 1.714 10 4 2.484.16 4.943.26 7.43.316l2.26.063q3.592.097 7.185.183l4.824.131c7.65.222 7.65.222 15.301.307v-2l6.152-.586L673 287l1-2h5v2h2v3l2.375-.125C686 290 686 290 688 292c.625 2.625.625 2.625 1 5l3 1c.75 1.938.75 1.938 1 4l-1 2h-10l-1-2-1 2h-12v-2l-5-1v3h-5v-2h-2v2h-5v-2h-5v2c-1.437.081-2.874.14-4.312.188l-2.426.105c-2.74-.355-3.554-1.187-5.262-3.293l-2 3c-2.5.188-2.5.188-5 0h-12v-2l-4-2q-.04-2.437-.062-4.875l-.036-2.742C611 290 611 290 612 288c3.063-.625 3.063-.625 6-1zm0 7v2h-2v3l5 1c1.011-3.05 1.011-3.05 0-6zm23 3v3l2-1z"/><path fill="#020202" d="M258.941 193.902 269 194l1 16h4v-2c7.46-.367 7.46-.367 9.75 1.188 1.683 2.44 1.552 4.064 1.438 7l-.083 2.73L285 221c-4.462 2.231-11.22 1.043-16 1v15c-7 1-7 1-13 0l-1-15h-14c-.125-11.75-.125-11.75 1-14h4v2h9l-.035-3.246-.028-4.191-.025-2.143c-.009-1.807.036-3.614.088-5.42 1-1 1-1 3.941-1.098"/><path fill="#080808" d="M480 285v2h5v-2h5l2 5h3l2-5h18v5l3.875-.062c3.875-.063 3.875-.063 6.125 1.062.625 3.063.625 3.063 1 6l3 1v7l-4 2v-2l-25.586-.781-2.156-.067c-3.628-.112-3.628-.112-7.258-.152h-5v-2h-2v2c-1.437.081-2.874.14-4.312.188l-2.426.105C474 304 474 304 472.187 302.617 471 301 471 301 471.313 298.937L472 297c.03-2.243.03-2.243-.312-5.437L472 288c2.843-2.382 4.284-3 8-3"/><path fill="#010101" d="M331 44h14v9l3.313-.062C352 53 352 53 355 54v11h-2v2h-8v8h-2v2h-11c-1.607-3.215-1.057-6.436-1-10h-10q-.118-3.187-.187-6.375l-.106-3.586L321 54c3.85-2.567 5.586-1.833 10-1zm4 13v5l6-1v-3zM64.25 42.867l2.75.008 2.75-.008C72 43 72 43 73 44c.455 2.655.702 5.322 1 8l3.938.438c3.937.437 3.937.437 5.062 1.562.073 2.186.084 4.375.063 6.563l-.028 3.628L83 67H73v10H61v-9l-10-1c-.054-2.125-.093-4.25-.125-6.375l-.07-3.586C51 54 51 54 53 52q3.012.43 6 1c1.489-1.489 1.293-2.934 1.5-5 .494-4.94.494-4.94 3.75-5.133M63 57v3h2v2h4v-5z"/><path fill="#4C4C4C" d="M581 285h5v2h6l1 3h12l1 4h2v4h-2l-1 6h-17v-2h-2v2h-6c-.2-1.065-.2-1.065-.402-2.152l-.535-2.786-.528-2.777c-.312-2.238-.312-2.238-1.535-3.285-2.49-.073-4.966.004-7.457.063C567 293 567 293 563 292v9h-2l-1-4-2 4v-11l3-1v-2h2v3h16v-3h2z"/><path fill="#222" d="M674 285h5v2h2v3l2.375-.125C686 290 686 290 688 292c.625 2.625.625 2.625 1 5l3 1c.75 1.938.75 1.938 1 4l-1 2h-10l-1-2-1 2c-1.666.043-3.334.04-5 0-1.968-1.968-1.662-5.348-2-8l-1 4h-2v-11h-2v11l-1-4h-2l-1-3-3 7c-1.206-2.332-2.165-4.496-3-7l-3-1-1 8c-2-1-2-1-3.125-4.062L650 293c0 2.84.403 5.237 1 8l-1-2h-3l-.375-2.437L646 294c-2.709-1.354-5.01-1.065-8-1l-2 6-.312-1.937L635 295l-3-1h3v-3c2.818-1.41 5.173-1.112 8.32-1.098l3.809.01 3.996.026q2.01.008 4.02.013 4.928.018 9.855.049v-2l6.152-.586L673 287z"/><path fill="#2C2C2C" d="M485 285h5l2 5h3l2-5h18v5l3.875-.062c3.875-.063 3.875-.063 6.125 1.062.625 3.063.625 3.063 1 6l3 1v7l-4 2v-2l-3.43-.113q-2.222-.098-4.445-.2l-2.262-.068c-1.963-.097-3.916-.35-5.863-.619-2.491-3.737-2.207-5.745-2.125-10.187l.055-3.856L507 287h-2v5h-6v2h-4v-2l-6 4v-9h-2v9h-2c-1.286-7.429-1.286-7.429 0-11"/><path d="m785.5 99.875 2.09-.012c5.157.01 5.157.01 7.41 1.137 1.45 4.348 1.499 8.457 1 13-1.375 2.563-1.375 2.563-4 4-3.324.613-6.63.804-10 1-2.342.29-4.667.645-7 1-2.97-4.454-2.512-8.774-2-14 2.817-6.403 6.058-6.161 12.5-6.125"/><path fill="#010101" d="M679 100q3.906-.118 7.813-.187l2.236-.077c5.353-.072 5.353-.072 7.951 1.389 1.461 2.74 1.287 4.982 1.188 8.063l-.083 3.292L698 115h-2l-1 3h-12v2c-2.375.625-2.375.625-5 1-2-2-2-2-2.195-5.695q.02-2.216.07-4.43l.027-2.285c.024-1.864.06-3.727.098-5.59h2z"/><path fill="#020202" d="m553.063 99.688 2.22-.01c5.45.055 5.45.055 7.717 2.322.3 2.934.3 2.934.313 6.438l.05 3.496C563 115 563 115 561.781 116.875c-2.277 1.438-3.912 1.56-6.593 1.688-4.022.282-7.408.945-11.188 2.437-2.542-2.542-2.287-4.242-2.322-7.717l.01-2.22-.05-2.21c-.002-2.868.056-5.254 1.378-7.837 3.218-1.647 6.52-1.406 10.047-1.329"/><path fill="#272727" d="M391 285h9v2l1.938.438C404 288 404 288 405 289c1.515.232 3.038.412 4.563.563l2.503.253L414 290c1.172 4.099 1.07 7.754 1 12h-3v-8h-5c-.113 5.083-.113 5.083 1 10q-4.47.04-8.937.063l-2.577.025-2.45.01-2.27.016C390 304 390 304 389 303a210 210 0 0 1-.062-8.062l.013-2.3q.02-2.818.049-5.638h2z"/><path fill="#333" d="m445.91 289.77 3.498.005 3.654.038 3.667.001c8.99.046 8.99.046 11.271 1.186v11h-2v2q-3.875.04-7.75.063l-2.21.025c-3.527.016-6.65-.135-10.04-1.088l.098-6.055c.028-2.027.028-2.027-1.098-3.945h-2l2 1v2h-6l-2-4c3.47-2.313 4.82-2.246 8.91-2.23"/><path fill="#111" d="M165 308h94v2h6v1H140v-1h25z"/><path fill="#0D0D0D" d="M62 43q2.469-.04 4.938-.062l2.777-.036C72 43 72 43 73 44c.455 2.655.702 5.322 1 8l3.938.438c3.937.437 3.937.437 5.062 1.562.073 2.186.084 4.375.063 6.563l-.028 3.628L83 67H73v10l-10-1v-1h9V65l-17 1v-1h6V55h10V45H61zm1 14v3h2v2h4v-5z"/><path fill="#070707" d="M331 44h14v10h6v1h-8v11l-10-1 1-3 7 1v-5h-8v-3h-10v-1l7-1z"/><path fill="#050505" d="M152 321h1v6h2l.313 1.875c.562 2.49.562 2.49 3.687 4.125 2.9.185 5.703.252 8.602.227h2.662c2.905 0 5.81-.016 8.716-.032l6.041-.008c5.302-.008 10.604-.028 15.906-.05 5.409-.02 10.818-.03 16.227-.04 10.616-.02 21.23-.055 31.846-.097-.979 1.475-.979 1.475-3 3-2.852.301-5.486.42-8.34.404l-2.577.02a992 992 0 0 1-8.45.01q-2.936.007-5.87.015-6.156.013-12.312-.003c-5.259-.011-10.516.009-15.774.038-4.043.018-8.085.018-12.127.012q-2.908 0-5.816.019c-2.712.015-5.423.004-8.136-.013l-2.425.029c-3.767-.05-5.944-.384-9.148-2.437-2.928-3.027-3.146-4.622-3.088-8.719l.028-2.477z"/><path fill="#161616" d="M505 287h2l1 7h1v10h-24v-5h2v3h2l1-4c2 0 2 0 4.125 2l1.875 2-1.625-2.25L493 297c.813-2.312.813-2.312 2-4l4 1v-2h6z"/><path fill="#313131" d="M672 288v4h-2v-3h-2v11l-1-4h-2l-1-3-3 7c-1.206-2.332-2.165-4.496-3-7l-3-1-1 8c-2-1-2-1-3.125-4.062L650 293c0 2.84.403 5.237 1 8l-1-2h-3l-.375-2.437L646 294c-2.709-1.354-5.01-1.065-8-1l-2 6-.312-1.937L635 295l-3-1h3v-3c2.818-1.41 5.173-1.112 8.32-1.098l3.809.01 3.996.026q2.01.008 4.02.013 4.928.018 9.855.049v-2c3.133-1.044 3.99-.934 7 0"/><path fill="#2B2B2B" d="M618 285c3.155.701 6.007 1.789 9 3q2.993 1.019 6 2v3l-4-1v9l-2.187-1.062c-3.19-1.064-4.598-.597-7.813.062-2.312-.937-2.312-.937-4-2v-5l2-1-1 5h5v-5h-2v-2l6 1v-2l-3.875-.062-2.18-.036c-2.027-.028-2.027-.028-3.945 1.098-.687 2.118-.687 2.118-1.125 4.563l-.508 2.503L613 299h-2a585 585 0 0 1-.062-4.375l-.036-2.46C611 290 611 290 612 288c3.063-.625 3.063-.625 6-1z"/><path fill="#5F5F5F" d="M485 285h5l2 5h3l2-5h11v2h2l-1 5h-2v-5h-2v5h-6v2h-4v-2l-6 4v-9h-2v9h-2c-1.286-7.429-1.286-7.429 0-11"/><path fill="#373737" d="m514 287 1 3 3.875-.062c3.875-.063 3.875-.063 6.125 1.062.625 3.063.625 3.063 1 6l3 1v7l-4 2v-2h-2v-8l-5-2v-2h-1v3c2.445 1.717 2.445 1.717 5 3l-1 2-6-1-1 2c-1-1-1-1-1.133-3.906l.008-3.594-.008-3.594C513 288 513 288 514 287"/><path fill="#0F0F0F" d="m710.383 126.805 2.742.07 2.758.055L718 127v2h-9l.49 3.84c.58 5.25.672 10.445.678 15.722l.01 3.001q.007 3.132.007 6.263c.002 3.137.02 6.275.04 9.412.031 11.74-.484 23.148-2.225 34.762h-1q-.29-3.218-.562-6.437l-.317-3.622L706 189l1-1c.25-2.383.431-4.735.563-7.125l.126-2.257c1.495-23.827 1.495-23.827-1.35-47.36L706 129c2-2 2-2 4.383-2.195"/><path fill="#303030" d="M603.688 290.375 606 291v3h2v4h-2l-1 6h-9c-1.343-6.228-1.343-6.228.25-9.812 2.323-2.904 3.62-4.346 7.438-3.813"/><path fill="#3E3E3E" d="M446 290c1.875 1.25 1.875 1.25 3 3v4l6 2-1 2-5-1v2c2.97-.342 2.97-.342 6-1l1-2c2.649-.594 5.292-.742 8-1l-1 3h-4l4 3q-3.125.039-6.25.063l-3.516.035c-2.644-.08-4.732-.312-7.234-1.098l.098-6.055c.028-2.027.028-2.027-1.098-3.945h-2l2 1v2h-6l-2-4c3.47-2.313 4.922-2.425 9-2"/><path fill="#292929" d="M588 289h2v3h4v2h-4v6l1.938.313L594 301l1 3h-7v-2h-2v2l-4-1v-11h6z"/><path fill="#040404" d="M432 287h1v14l4-1-1-3c.938-2.187.938-2.187 2-4l1 3h6v-2l-5-1v-1c2.375-.187 2.375-.187 5 0 2.786 4.18 1.796 6.147 1 11l4 1h-12v-2h-3l-1 2-2-1z"/><path fill="#3D3D3D" d="M561 287h2v3l17-1 1.367 9.96c.363 3.136.363 3.136 2.633 5.04h-4c-.2-1.065-.2-1.065-.402-2.152l-.535-2.786-.528-2.777c-.312-2.238-.312-2.238-1.535-3.285-2.49-.073-4.966.004-7.457.063C567 293 567 293 563 292v9h-2l-1-4-2 4v-11l3-1z"/><path fill="#222" d="M424 288h2v5l-3.437-.062c-3.379-.354-3.379-.354-4.563 1.062-.247 4.143-.247 4.143 1 8h-3v2h-5v-2l-4 1c-1.125-6.75-1.125-6.75 0-9h5v8h3l-.437-3.875-.247-2.18c-.229-2.019-.229-2.019-1.316-3.945 2-2 2-2 4.164-2.195l2.461.07 2.477.055L424 290z"/><path fill="#202020" d="M62 43q2.469-.04 4.938-.062l2.777-.036C72 43 72 43 73 44c.455 2.655.702 5.322 1 8l3.938.438c3.937.437 3.937.437 5.062 1.562.073 2.186.084 4.375.063 6.563l-.028 3.628L83 67H73v10l-10-1v-1h9V65h10V55H72V45H61z"/><path fill="#020202" d="M391 288h10v2h-8v4h7v5h-5l-1-2-1 3h8v2c-3.83 1.802-6.781 2.196-11 2l-1-3h2z"/><path fill="#030303" d="M426 287h1v15h-2l-1 2h-6a340 340 0 0 1-.625-4.875l-.352-2.742L417 294l2-2c3.625.375 3.625.375 7 1zm-5 9v2h2v-2zM668 289h2v3l3 1-2 1c-.658 3.03-.658 3.03-1 6h2l1-5h1l1 9h-7v-2l-5-1v3h-2c-.883-2.467-1.131-3.639-.223-6.14l1.16-2.11 1.153-2.14.91-1.61 1 4h2z"/><path fill="#0F0F0F" d="m207 276 1 4q4.375-.212 8.75-.437l2.5-.12 2.422-.127 2.222-.11c2.118-.207 4.058-.637 6.106-1.206v2h4v-2q3.219-.04 6.438-.062l3.62-.036C247 278 247 278 248 279c2.183.235 4.372.414 6.563.563l3.628.253L261 280l1-3h2l-1 4h-56z"/><path fill="#010101" d="M72 55h10v10c-6.934.879-6.934.879-9 1-1-1-1-1-1.098-3.285z"/><path fill="#1A1A1A" d="M774 147h2c1.519 5.184 1.19 10.453 1.188 15.813l.001 3.466c-.068 11.305-.975 22.487-2.189 33.721h-1z"/><path fill="#0C0C0C" d="M468 291v11h-2v2c-3.688-.498-5.605-1.1-8-4h5l1-2-5-1v-5c3.713-2.338 4.194-1.961 9-1"/><path fill="#020202" d="M638 292c4.054-.431 5.55-.3 9 2 .188 3.625.188 3.625 0 7-5.273 2.157-5.273 2.157-8.312 1.5-1.688-1.5-1.688-1.5-2.563-4.437C636 295 636 295 638 292m3 3v3l2-1z"/><path fill="#0E0E0E" d="M141 275h2v5q3.219-.211 6.438-.437l3.62-.247c2.828.007 2.828.007 3.942-1.316a100 100 0 0 1 5 0v2c4.342-.185 4.342-.185 8-2 3.5-.125 3.5-.125 7 0l1 1c1.413.156 2.834.25 4.254.316l2.588.127 2.72.12 2.733.13q3.353.16 6.705.307v1h-56z"/><path fill="#090909" d="M111 106h1c-.356 5.578-2.016 9.065-4.855 13.844-1.42 2.674-1.914 5.15-2.145 8.156h-2l-.375 3.5c-.528 4.284-1.509 8.334-2.625 12.5h-2c.951-14.027 6.533-25.772 13-38"/><path fill="#515151" d="M539 285v2h2v3h11v3c-7.75.125-7.75.125-10-1l-1 4v-2h-3v-6h-2v13h-2c-.277-1.913-.52-3.83-.75-5.75l-.422-3.234C533 289 533 289 534.86 286.609 537 285 537 285 539 285"/><path fill="#2E2E2E" d="M536 288h2v6h3c1.354 2.709 1.065 5.01 1 8l4 2h-12l-1-7 1 4h2z"/><path fill="#1F1F1F" d="m573 293 4 2v7h2v-6h1v8h-5l-.375-2.937L574 298l-2-1v6h-6v-9h3v8h2l-.125-3.375C571 295 571 295 573 293"/><path fill="#383838" d="M672 288v4h-2v-3h-2v11l-1-4h-2l-1-3-3 7c-1.267-2.28-2.02-4.103-2.5-6.687L658 291l-2-1h9v-2c3.133-1.044 3.99-.934 7 0"/><path fill="#282828" d="M480 285v2h5v9l2 1-3 1-1-3c-3.008-1.225-3.008-1.225-6-2v-3l6 1-1-2c-2.874-.334-2.874-.334-6 0-1.913 1.88-1.913 1.88-3 4l-1-5c4.625-3 4.625-3 8-3"/><path fill="#010101" d="M479.125 287.875 482 288l1 3h-6l1 2 2.5.813C483 295 483 295 484 297.438c0 2.562 0 2.562-1.062 4.437-2.845 1.652-4.84.882-7.938.125v-3l6 1v-4l-6-1c-.625-2.375-.625-2.375-1-5 2-2 2-2 5.125-2.125"/><path fill="#030303" d="M676 287h2v6l3.438-.562L685 292c1 1 1 1 1.098 3.066l-.035 2.497-.028 2.503L686 302h-2l-1-8h-4v10l-3-1z"/><path fill="#4C4C4C" d="M497 285h11v2h2l-1 5h-2v-5h-2v3h-10z"/><path fill="#0B0B0B" d="m598 292 7 1-1 4v-3h-5l-1 2 5 1-4 2a85 85 0 0 0 7 2l-1 3h-9c-1.354-6.277-1.354-6.277.438-9.937z"/><path fill="#191919" d="M429 285h6l1 6 4-1-1 2h-2c-.074 3.343-.065 5.804 1 9h-5v-14zM784.125 99.938l3.32.027L790 100v1l-2.336.078-3.039.172-3.023.14c-2.66.347-2.66.347-3.946 2.235-.86 3.114-.846 5.899-.781 9.125l.055 3.547L777 119l-4-2c-.562-11.89-.562-11.89 3-16 2.765-1.382 5.046-1.095 8.125-1.062"/><path fill="#030303" d="M404 292q2.187-.079 4.375-.125l2.46-.07C413 292 413 292 415 294c.27 2.688.087 5.291 0 8h-3v-8h-5l-1 8h-2v-2l-2-1z"/><path fill="#121212" d="M400 294h4l-.562 2.313c-.666 2.777-.666 2.777.562 5.687l3-1 1 3h-12l1-2h4v-2h-8l1-4 2 2c2.108-.319 2.108-.319 4-1z"/><path fill="#0F0F0F" d="M148 218q3.969-.04 7.938-.062l2.287-.026c1.925-.009 3.85.036 5.775.088l1 1c1.515.232 3.038.412 4.563.563l2.503.253L174 220v1h-28l2-1z"/><path fill="#070707" d="M550 131c-2 2-2 2-5.5 3.438-3.694 1.275-3.694 1.275-5.5 4.562l2.063 2.25C543 144 543 144 542.75 146.313L542 148l-1-4h-2c-2.285-1.67-2.926-2.641-3.5-5.437.5-2.563.5-2.563 2.813-4.813 4.046-2.635 6.95-2.855 11.687-2.75"/><path fill="#4C4C4C" d="m514 287 .313 1.938L515 291l3 1-1 4 5 3-1 2-6-1-1 2c-1-1-1-1-1.133-3.906l.008-3.594-.008-3.594C513 288 513 288 514 287"/><path fill="#131313" d="M163 174c2.155-.34 2.155-.34 4.79-.293l2.85.03 2.985.076 3.008.04q3.683.054 7.367.147l-1 2-1.728.076q-3.855.175-7.71.362l-2.72.119-2.588.127-2.396.11c-1.872.012-1.872.012-2.858 1.206a145 145 0 0 0-.562 6.063l-.254 3.347L162 190h-1a609 609 0 0 1-.125-6.312l-.07-3.551C161 177 161 177 163 174"/><path fill="#171717" d="M333 55h10v11l-10-1 1-3 7 1v-5h-8z"/><path fill="#121212" d="m681 293 3 1v8h2v2h-4l-1-2-3-1c.256-2.343.593-4.678 1-7z"/><path fill="#131313" d="m472 290 2.25 2.438c2.503 2.332 3.468 3.197 6.75 3.562v4h-6v2l-4-1 .5-1.875c.576-2.086.576-2.086.5-4.125z"/><path fill="#101010" d="m277 171 2 1v2h28v2h-30z"/><path fill="#0C0C0C" d="M207 55h5v2l-2 1c-.47 2.522-.47 2.522-.633 5.566l-.254 3.409-.238 3.588-.262 3.6Q208.293 78.58 208 83h-1z"/><path fill="#191919" d="m675 285 .113 3.648q.098 2.364.2 4.727l.068 2.406c.097 2.081.349 4.153.619 6.219l3 2-5-1-1-7-1 4h-2c-.125-2.875-.125-2.875 0-6l2-2-.562-1.937L671 288c2.357-3 2.357-3 4-3"/><path fill="#252525" d="m464 298-1 3h-4l4 3q-3.125.039-6.25.063l-3.516.035c-2.644-.08-4.732-.312-7.234-1.098v-2l3-1v2c2.97-.342 2.97-.342 6-1l1-2c2.77-.729 5.129-1 8-1"/><path fill="#0A0A0A" d="M859 209h2c-1.998 6.726-4.751 12.792-8 19a933 933 0 0 0-2 4c-.178-4.548.002-7.88 2-12h2l1-7h2z"/><path fill="#1E1E1E" d="M137 134h7v9l8-1 1 5-3-2c-4.075-.34-5.53-.313-9 2v-10l-4-1z"/><path fill="#0A0A0A" d="M517 292h6l-1 2-4-1c1.634 1.708 2.87 2.935 5 4v7h-7v-4h5l-5-4z"/><path fill="#272727" d="m559.164 284.805 2.461.07 2.477.055L566 285v2h2v3h-5v-3l-5 1-1 4h-3c1.078-6.827 1.078-6.827 5.164-7.195"/><path fill="#262626" d="M61 55h10v1h-8l1 6 7 2v1l-16 1v-1h6z"/><path fill="#0F0F0F" d="M588 289h2v3h4v2h-4v6l1.938.313L594 301l1 3h-4v-2h-2a470 470 0 0 1-1.062-4.812l-.598-2.708C587 292 587 292 588 289"/><path fill="#020202" d="M569 292c6.055-.195 6.055-.195 8 0 2 2 2 2 2.195 3.945L579 302h-2l-1-7h-4l-1 7h-2z"/><path fill="#212121" d="M542 292c4 2 4 2 7 4l-2 2v3l-1 2-4-1z"/><path fill="#0A0A0A" d="M809 121h2v11l-7 1-1 8h-1l-1-10 8-1z"/><path fill="#0E0E0E" d="M500 160c1.124 3.304.896 5.05-.437 8.25l-.872 2.14L498 172h-2l1 15-2 1c-.957-20.915-.957-20.915 5-28"/><path fill="#343434" d="M559 289h3c.96 2.882 1.106 4.699 1.063 7.688l-.028 2.449L563 301h-2l-1-4-2 4a920 920 0 0 1-.062-5.437l-.036-3.06C558 290 558 290 559 289"/><path fill="#0A0A0A" d="M558 287h3c0 2 0 2-1.5 3.625L558 292l3 1h-3v9h-2v-8l-4-1 2-4v3h3z"/><path fill="#272727" d="M675 285h4v2h2v3h2v2l-5 1v-6h-2v15h-1z"/><path fill="#646464" d="M579 288h8l1 4h-2l-1 2v-2h-3v10h-1z"/><path fill="#2A2A2A" d="m428 285 6 1-2 1v15h-1v-8h-3z"/><path fill="#2D2D2D" d="M501 292h4v9l-4 1z"/><path fill="#111" d="M735 127c2.531-.363 2.531-.363 5.5-.312l2.969.011C746 127 746 127 748 129c-1 1-1 1-4.16 1.098l-3.903-.036-3.91-.027L733 130z"/><path fill="#0F0F0F" d="M132 297h2l-1 6h2l1 4 6 1v2c-3 1-3 1-5.562-.25C134 308 134 308 132 305c-.258-2.695-.089-5.285 0-8"/><path fill="#101010" d="M440 292c2.375-.187 2.375-.187 5 0 2 3 2 3 1.625 5.688L446 300c-4.75 1.125-4.75 1.125-7 0v-4h6v-2l-5-1z"/><path fill="#202020" d="m656 290 2 2h-3l-1 8c-2-1-2-1-3-3.937L650 293l-2-2c2.763-1.381 4.947-1.19 8-1"/><path fill="#131313" d="M152 321h1v6h2l.125 1.75c1.316 3.383 3.84 4.442 6.875 6.25-1.687.75-1.687.75-4 1-2.647-1.785-4.56-3.12-6-6a78 78 0 0 1-.062-4.625l.027-2.477z"/><path fill="#2A2A2A" d="M490 298h2l.875 2.438c.858 2.695.858 2.695 3.125 3.562l-2.437-.562L491 303l-1 1c-1.666.04-3.334.043-5 0v-5h2v3h2z"/><path fill="#343434" d="M546 293c3.875.875 3.875.875 5 2 .04 2 .043 4 0 6h3v2l-6 1v-8h-3z"/><path fill="#313131" d="M656 290h8c0 3.867-1.42 6.509-3 10-1.267-2.28-2.02-4.103-2.5-6.687L658 291z"/><path fill="#121212" d="M642 179c2.93 4.038 1.793 8.123 1.125 12.75l-.316 2.402c-.259 1.951-.533 3.9-.809 5.848h-2c.138-3.313.287-6.625.438-9.937l.119-2.866.127-2.724.11-2.524C641 180 641 180 642 179"/><path fill="#3D3D3D" d="m590 294 6 1 1 8h-3l-1-2-3-1z"/><path fill="#0B0B0B" d="M309 209h1a979 979 0 0 1-.437 4.25l-.247 2.39c-.292 2.184-.737 4.237-1.316 6.36h-2v3l-3-1z"/><path fill="#2F2F2F" d="M480 285v2h5l-1 5-2-3c-2.957-.583-2.957-.583-6 0-1.913 1.88-1.913 1.88-3 4l-1-5c4.625-3 4.625-3 8-3"/><path fill="#090909" d="M468 159c3.37 4.492 3.464 5.612 3 11-1 3.438-1 3.438-2 6h-1z"/><path fill="#0C0C0C" d="M421 293c2.063.438 2.063.438 4 1 .625 1.875.625 1.875 1 4l-2 2v-4h-3v2h2v3l-4-2c.875-4.875.875-4.875 2-6"/><path fill="#525252" d="M485 285h5l1 5-4-3v9h-2c-1.286-7.429-1.286-7.429 0-11"/><path fill="#080808" d="m633 290 4 1h-2v3l-3 1-1 7h-2v-10l4 1z"/><path fill="#0E0E0E" d="M172 186h1c.57 12.034.57 12.034-3 16l-3 1 .586-1.687A164 164 0 0 0 172 186"/><path fill="#0B0B0B" d="m230 101 3 1-1.457 1.207c-1.917 2.228-2.02 3.581-2.23 6.48l-.2 2.45L229 114c-1.508-1.281-1.508-1.281-3-3 .13-3.623.25-6.07 2.563-8.937z"/><path fill="#191919" d="M640 293c2.063.438 2.063.438 4 1l-3 1v3l4-2c-.312 1.938-.312 1.938-1 4l-3 1-3-2c.875-4.875.875-4.875 2-6"/><path fill="#101010" d="M274 270h1l.148 2.668.227 3.52c.07 1.148.14 2.297.21 3.48.39 3.132 1.096 5.485 2.415 8.332-2.5-.937-2.5-.937-5-3-.911-4.944 0-10.128 1-15"/><path fill="#0F0F0F" d="M142 235h1l.25 2.313c.532 2.755.532 2.755 2.5 4.437 2.437 1.354 4.5 1.868 7.25 2.25l-1 2c-6.302-.594-6.302-.594-8.937-2.125-1.647-2.906-1.248-5.613-1.063-8.875"/><path fill="#070707" d="m259 134 1 3a141 141 0 0 1-5 5h-2l-2 4-3-1z"/><path fill="#343434" d="m446 290-3 3 2 1v2h-6l-2-4c3.435-2.29 4.985-2.178 9-2"/><path fill="#363636" d="M617 287v2l-2 1c-.687 2.118-.687 2.118-1.125 4.563l-.508 2.503L613 299h-2a585 585 0 0 1-.062-4.375l-.036-2.46C611 290 611 290 612 288c3-1 3-1 5-1"/><path fill="#1B1B1B" d="M708 182h1c.185 13.633.185 13.633-1 20h-1c-1.517-13.633-1.517-13.633 1-20"/><path fill="#131313" d="M537 288h1l1 9h2v4l-4 1z"/><path fill="#0B0B0B" d="m404 292 7 1-4 1-1 8h-2v-2l-2-1z"/><path fill="#373737" d="M407 294h5v7l-1-4h-3v6l-2-2c.375-3.625.375-3.625 1-7"/><path fill="#101010" d="M429 285h6l1 6 4-1-1 2h-2v2h-3l-.25-3.375c-.329-3.683-.329-3.683-2.812-5.062z"/><path fill="#060606" d="M464 297h2v4l2 1h-2v2c-3.688-.498-5.605-1.1-8-4h5z"/><path fill="#2E2E2E" d="M497 285h7l-1 2h-2v3h-6z"/><path fill="#0F0F0F" d="M262 321h3v7h-2v5l-2 1z"/><path fill="#030303" d="m449 293 1 2c1.979.727 3.98 1.398 6 2l-1 5h-6v-2h5c-2.773-1.938-2.773-1.938-5-3z"/><path fill="#202020" d="M404 300v2l3-1 1 3h-12c1.557-3.115 4.6-4 8-4"/><path fill="#0A0A0A" d="M561 184h1c1.071 6.026 1.1 11.89 1 18-2.432-2.432-2.572-3.629-3-7a88 88 0 0 1 .438-5.812l.308-2.958z"/><path fill="#0C0C0C" d="m253 166 2 1q-1.426 2.257-2.875 4.5l-1.617 2.531L249 176h-2c.414-4.833 2.464-6.827 6-10"/><path fill="#1E1E1E" d="M631 295h4v2h-2l-1 7h-4l1-3 2 1zM579 296h1v8h-5l-1-7h3v5h2z"/><path fill="#505050" d="M561 287h2v3l3.875-.125c2.18-.07 2.18-.07 4.125.125l2 2c-3.982 1.054-6.982.841-11 0z"/><path fill="#0B0B0B" d="M137 190c3.412 1.137 4.119 2.043 6 5v2h2v2c-3.255-.561-4.998-1.331-7-4-.687-2.687-.687-2.687-1-5M129 84l1 3a141 141 0 0 1-5 5h-2v2l-3 1c1.408-3.215 3.103-5.322 5.625-7.75l1.914-1.86z"/><path fill="#252525" d="M656 295h2l3 9h-3v-3h-3z"/><path fill="#020202" d="m655 292 4 1 1 7-2-1v-4h-2l-1 5c-.981-3.053-.981-4.947 0-8"/><path fill="#3D3D3D" d="m627 289 6 1v3l-4-1v9h-1v-9h-2z"/><path fill="#080808" d="M187 236c2.309 3.984 1.865 6.501 1 11h-2v3h-2c.907-4.687 1.955-9.342 3-14"/><path fill="#0C0C0C" d="M166 140c1.35 2.7.6 4.066 0 7-.038 2-.046 4 0 6-2.19-3.285-2.998-6.207-4-10z"/><path fill="#3A3A3A" d="M541 290h11v3c-5.957.293-5.957.293-8 0z"/><path fill="#0D0D0D" d="m784.125 99.938 3.32.027L790 100v1l-2.3.078-3.013.172-2.988.14c-3.316.75-3.897 1.838-5.699 4.61h-2c2.19-6.1 3.804-6.13 10.125-6.062"/><path fill="#101010" d="M98 152h1l-1 11-2-1c-.195-6.055-.195-6.055 0-8z"/><path fill="#0B0B0B" d="M746 149h2q.079 2.156.125 4.313l.07 2.425C748 158 748 158 746 161c-.928-4.333-.928-7.667 0-12"/><path fill="#111" d="m673 131 1 6-2 1-1-6-6 1v-2c3.29-1.097 4.713-.8 8 0"/><path fill="#0C0C0C" d="m152 109 3 1c1.477 3.49 1.072 7.274 1 11-1.903-2.855-2.462-4.42-3.125-7.687l-.508-2.45z"/><path fill="#2F2F2F" d="m573 293 4 2v2h-5v5h-1c-.125-3.375-.125-3.375 0-7z"/><path fill="#010101" d="m542 292 4 2-1 1a236 236 0 0 0-1 7h-2z"/><path fill="#353535" d="M424 288h2v5l-9-1 1-2h6z"/><path fill="#0D0D0D" d="M163 174h3v2l-3 2c-.585 2.886-.585 2.886-.687 6.125l-.2 3.32L162 190h-1a609 609 0 0 1-.125-6.312l-.07-3.551C161 177 161 177 163 174"/><path fill="#202020" d="M474.563 296.938 477 297v3c-2 1-2 1-5 2-.562-1.937-.562-1.937-1-4 1-1 1-1 3.563-1.062"/><path fill="#080808" d="M114 228c2.822 1.035 3.834 1.7 5.313 4.375.73 2.792.483 3.934-.313 6.625a805 805 0 0 1-2.5-4.375l-1.406-2.46C114 230 114 230 114 228"/><path fill="#0C0C0C" d="M316 178c2.108 4.216 2.177 6.398 2 11h-3z"/><path fill="#0D0D0D" d="M679 100h14v1l-2.266.113-2.984.2-2.953.175c-3.05.558-4.504 1.476-6.797 3.512z"/><path fill="#090909" d="m313 195 2 1v5h-2l-1 5c-1.6-4.002-.293-7.046 1-11"/><path fill="#1F1F1F" d="M801 131h10v1l-7 1-1 8h-1z"/><path fill="#232323" d="m393 290 1 2 2.375-.625L399 291l2 2c-1 1-1 1-4.562 1.063L393 294z"/><path fill="#242424" d="m458 293 1 4h2v2h-5v-2l-2-1 2-1 2 1z"/><path fill="#0B0B0B" d="M298 235c.934 3.01 1.044 3.867 0 7h-2v2h-2c1.059-3.403 2.009-6.014 4-9"/><path fill="#0C0C0C" d="M219 205h3v2l1.938.313L226 208l1 3c-2.972-1.125-5.334-2.223-8-4z"/><path fill="#161616" d="M495 147h5l-3 6h-2z"/><path fill="#080808" d="m671 136 1 4 4 1-1 2-7-2zM608 95a141 141 0 0 1-5 5h-2c.375-2.437.375-2.437 1-5 2.49-1.245 3.41-.777 6 0"/><path fill="#101010" d="M53 52c3.375.547 5.082 1.055 8 3h-9z"/><path fill="#494949" d="m686 299 4 1v4h-4z"/><path fill="#222" d="m559 296 2 1c.625 3.063.625 3.063 1 6h-6l2-2c.648-2.57.648-2.57 1-5"/><path fill="#323232" d="m516 296 6 3-1 2-5-1z"/><path fill="#393939" d="M597 298h9l-1 3a109 109 0 0 1-7-1z"/><path fill="#2F2F2F" d="M654 292c.93 2.606 1.15 3.642.063 6.25L653 300c-1.062-1.812-1.062-1.812-2-4l1-3z"/><path fill="#020202" d="M546 292a100 100 0 0 1 5 0c1 1 1 1 1.098 3.066l-.035 2.497-.028 2.503L552 302l-2-1 .25-2.812c.103-3.28.103-3.28-2.25-5.063z"/><path fill="#0A0A0A" d="m885 131-10 5c.98-2.452 1.687-3.78 3.875-5.312 2.498-.809 3.654-.406 6.125.312"/><path fill="#090909" d="M731 130c-4.625 4-4.625 4-8 4l1-3c2.463-1.231 4.28-1.072 7-1"/><path fill="#2F2F2F" d="M592 297c1.938.75 1.938.75 4 2 .75 2.125.75 2.125 1 4h-3z"/><path fill="#454545" d="m464 298-1 3-5-1v2h-2v-3c2.763-.597 5.16-1 8-1"/><path fill="#2F2F2F" d="m681 293 3 1v5c-2.5-1.375-2.5-1.375-5-3v-2z"/><path fill="#424242" d="m461 293 7 1-1 2h-6z"/><path fill="#4F4F4F" d="m518 293 7 1v2h-6z"/><path fill="#151515" d="M421 293c2.063.438 2.063.438 4 1 .625 1.875.625 1.875 1 4l-2 2-.312-1.875c-.563-2.49-.563-2.49-3.688-4.125z"/><path fill="#131313" d="m460 290-4 1v3l-5-1c2.61-3.48 4.831-3.278 9-3"/><path fill="#4A4A4A" d="M485 285h5l1 5-1.875-1c-2.035-1.142-2.035-1.142-4.125-1z"/><path fill="#0E0E0E" d="m635 222 1 3c-1.937 3.188-1.937 3.188-4 6-.75-1.687-.75-1.687-1-4 1.938-2.75 1.938-2.75 4-5"/><path fill="#0F0F0F" d="m515 147-2 6-4-2c3.75-4 3.75-4 6-4"/><path fill="#0D0D0D" d="M99 135c2.09 4.18 2.166 4.804 1 9h-2z"/><path fill="#0C0C0C" d="M668 97h3c-1 3-1 3-4.062 4.688L664 103c1.152-2.468 2.048-4.048 4-6"/></svg>