<svg xmlns="http://www.w3.org/2000/svg" version="1.1" xmlns:xlink="http://www.w3.org/1999/xlink" xmlns:svgjs="http://svgjs.dev/svgjs" width="1500" height="530" viewBox="0 0 1500 530"><g transform="matrix(1,0,0,1,-0.9090909090909918,-0.038435638552755336)"><svg viewBox="0 0 396 140" data-background-color="#ffffff" preserveAspectRatio="xMidYMid meet" height="530" width="1500" xmlns="http://www.w3.org/2000/svg" xmlns:xlink="http://www.w3.org/1999/xlink"><g id="tight-bounds" transform="matrix(1,0,0,1,0.2400000000000091,0.010152810183740257)"><svg viewBox="0 0 395.52 139.97969437963255" height="139.97969437963255" width="395.52"><g><svg viewBox="0 0 657.992384523249 232.87209974132801" height="139.97969437963255" width="395.52"><g transform="matrix(1,0,0,1,262.47238452324893,32.18420481229643)"><svg viewBox="0 0 395.52000000000004 168.50369011673516" height="168.50369011673516" width="395.52000000000004"><g id="textblocktransform"><svg viewBox="0 0 395.52000000000004 168.50369011673516" height="168.50369011673516" width="395.52000000000004" id="textblock"><g><svg viewBox="0 0 395.52000000000004 125.38455743879474" height="125.38455743879474" width="395.52000000000004"><g transform="matrix(1,0,0,1,0,0)"><svg width="395.52000000000004" viewBox="0.65 -36.05 159.28 50.5" height="125.38455743879474" data-palette-color="#010c80"><path d="M17.4-27.7L17.4-27.7 17.6-29.25Q17.6-31.55 15.8-32.2L15.8-32.2Q14.4-32.65 13.65-32.65L13.65-32.65 13.6-32.65Q12.1-32.65 11-32.18 9.9-31.7 9.4-31L9.4-31Q8.35-29.55 8.2-27.95L8.2-27.95Q8.2-26.05 9.9-24.68 11.6-23.3 14.03-22.28 16.45-21.25 18.88-20.05 21.3-18.85 23-16.6 24.7-14.35 24.7-11.2L24.7-11.2Q24.7-5.05 20.83-2 16.95 1.05 12.03 1.05 7.1 1.05 3.88-1.18 0.65-3.4 0.65-7.15L0.65-7.15 0.65-7.2Q0.65-9.05 1.23-10.43 1.8-11.8 2.6-12.45L2.6-12.45Q4.25-13.8 5.6-13.9L5.6-13.9 6.2-13.95Q7.6-13.95 8.75-13.28 9.9-12.6 9.9-11.4L9.9-11.4Q9.9-10.8 9.25-10.4 8.6-10 8.13-9.2 7.65-8.4 7.6-7.85L7.6-7.85 7.5-7.3Q7.5-4.25 10.3-3.25L10.3-3.25Q11.3-2.9 11.9-2.9L11.9-2.9Q14.65-2.9 16.32-4.55 18-6.2 18-8.75L18-8.75Q18-11.8 15.4-13.7L15.4-13.7Q13.45-15.1 11.18-16.05 8.9-17 8.1-17.4 7.3-17.8 6.4-18.35 5.5-18.9 4.4-19.9L4.4-19.9Q2-22 2-25.58 2-29.15 3.95-31.6L3.95-31.6Q7.45-36.05 14.45-36.05L14.45-36.05Q18.15-36.05 20.7-34.63 23.25-33.2 23.25-30.7L23.25-30.7Q23.25-28.9 22.23-27.7 21.2-26.5 19.6-26.5L19.6-26.5Q18.85-26.5 18.13-26.8 17.4-27.1 17.4-27.7ZM37.8-16.2L37.8-16.2Q37.6-16 37.6-15.78 37.6-15.55 38.52-15.35 39.45-15.15 40.55-14.25 41.65-13.35 42.2-12.3L42.2-12.3Q43.25-10.25 43.35-8.7L43.35-8.7 43.4-8.05Q43.65-2.2 45.55-0.05L45.55-0.05Q45.8 0.3 45.8 0.45L45.8 0.45Q45.8 1 44.4 1L44.4 1Q40.2 1 39.05-0.75L39.05-0.75Q38.45-1.45 38.45-5.1L38.45-5.1 38.45-6.35Q38.45-11 37.3-12.8L37.3-12.8Q36.7-13.65 35.82-13.65 34.95-13.65 34-12.13 33.05-10.6 33.05-9.55L33.05-9.55Q33.05-5.35 33.25-3.7 33.45-2.05 33.45-2L33.45-2Q33.45-0.55 31.47 0.25 29.5 1.05 27.75 1.05L27.75 1.05Q27.1 1.05 27.1 0.25L27.1 0.25 27.1 0.05Q28.3-6.1 28.3-19.35L28.3-19.35Q28.3-23.7 28.1-26.7L28.1-26.7 28-27.7Q27.9-29.1 27.42-30.1 26.95-31.1 26.5-31.4L26.5-31.4 26.1-31.65Q25.75-31.85 25.75-32.1L25.75-32.1Q25.75-32.9 28.15-33.9 30.55-34.9 32.3-34.9L32.3-34.9Q33.1-34.85 33.15-34.3L33.15-34.3Q33.4-32.3 33.4-26.08 33.4-19.85 33.1-16.15L33.1-16.15Q33.1-15.55 33.3-15.55 33.5-15.55 33.92-16.13 34.35-16.7 35.42-17.95 36.5-19.2 38.32-20.85 40.15-22.5 41.27-22.5 42.4-22.5 43.5-21.95 44.6-21.4 44.6-20.9L44.6-20.9 44.05-20.55Q41.2-19.5 37.8-16.2ZM51.9-26.75L51.9-26.75 50.7-26.8Q49.35-26.8 48.95-26.15L48.95-26.15Q48.85-26 48.7-26L48.7-26Q48.05-26 48.05-28.23 48.05-30.45 48.72-31.05 49.4-31.65 51.07-31.65 52.75-31.65 53.35-31.08 53.95-30.5 53.95-29.15 53.95-27.8 53.5-27.28 53.05-26.75 51.9-26.75ZM47.9-1.5L47.9-1.5 48.45-13.15Q48.45-17.3 47.5-18.8L47.5-18.8Q47.2-19.3 46.8-19.55L46.8-19.55Q46.5-19.65 46.5-19.95L46.5-19.95Q46.5-20.85 49.05-21.7 51.6-22.55 52.77-22.55 53.95-22.55 54-21.95L54-21.95Q54-20.95 53.72-16.28 53.45-11.6 53.45-6.45 53.45-1.3 54.05-0.05L54.05-0.05Q54.2 0.2 54.2 0.45L54.2 0.45Q54.2 1.1 52.3 1.1 50.4 1.1 48.4 0.1L48.4 0.1Q47.9-0.15 47.9-1.5ZM63.99-28.6L63.99-28.6 63.69-10.25Q63.69-1.65 64.24 0.05L64.24 0.05Q64.39 0.35 64.39 0.65L64.39 0.65Q64.39 1.25 62.94 1.25 61.49 1.25 59.72 0.53 57.94-0.2 57.94-1.35L57.94-1.35Q58.94-8.35 58.94-20.05L58.94-20.05 58.74-27.7Q58.64-29.1 58.17-30.1 57.69-31.1 57.24-31.4L57.24-31.4 56.84-31.65Q56.49-31.85 56.49-32.1L56.49-32.1Q56.49-32.8 58.67-33.83 60.84-34.85 62.89-34.85L62.89-34.85Q63.69-34.85 63.79-34.3L63.79-34.3Q63.99-33 63.99-28.6ZM74.14-28.6L74.14-28.6 73.84-10.25Q73.84-1.65 74.39 0.05L74.39 0.05Q74.54 0.35 74.54 0.65L74.54 0.65Q74.54 1.25 73.09 1.25 71.64 1.25 69.87 0.53 68.09-0.2 68.09-1.35L68.09-1.35Q69.09-8.35 69.09-20.05L69.09-20.05 68.89-27.7Q68.79-29.1 68.32-30.1 67.84-31.1 67.39-31.4L67.39-31.4 66.99-31.65Q66.64-31.85 66.64-32.1L66.64-32.1Q66.64-32.8 68.82-33.83 70.99-34.85 73.04-34.85L73.04-34.85Q73.84-34.85 73.94-34.3L73.94-34.3Q74.14-33 74.14-28.6ZM84.04-12.5L84.04-12.5 84.29-2.5Q84.29 0.65 83.46 3.08 82.64 5.5 81.44 6.7L81.44 6.7Q78.99 9.25 77.14 9.6L77.14 9.6 76.29 9.8Q75.54 9.8 75.54 9.35L75.54 9.35 75.79 8.6Q79.44 3.55 79.44-16.2L79.44-16.2Q79.44-18 79.39-18.9L79.39-18.9Q78.34-18.9 77.29-18.75L77.29-18.75 77.24-18.75Q76.69-18.75 76.69-19.3L76.69-19.3 76.84-21.2Q76.89-21.65 77.54-21.65L77.54-21.65 79.34-21.65 79.34-25 79.44-29.75Q79.44-30.1 79.56-30.53 79.69-30.95 80.64-31.83 81.59-32.7 83.44-33.43 85.29-34.15 86.61-34.15 87.94-34.15 87.94-33.35L87.94-33.35Q87.94-33.05 87.49-32.85L87.49-32.85Q86.04-32.4 85.11-30.28 84.19-28.15 84.19-23.05L84.19-23.05 84.19-21.65Q86.74-21.75 87.54-21.9L87.54-21.9Q87.89-21.9 87.89-21.3 87.89-20.7 87.36-19.83 86.84-18.95 86.06-18.93 85.29-18.9 84.14-18.95L84.14-18.95Q84.04-15.15 84.04-12.5ZM93.79-26.75L93.79-26.75 92.59-26.8Q91.24-26.8 90.84-26.15L90.84-26.15Q90.74-26 90.59-26L90.59-26Q89.94-26 89.94-28.23 89.94-30.45 90.61-31.05 91.29-31.65 92.96-31.65 94.64-31.65 95.24-31.08 95.84-30.5 95.84-29.15 95.84-27.8 95.39-27.28 94.94-26.75 93.79-26.75ZM89.79-1.5L89.79-1.5 90.34-13.15Q90.34-17.3 89.39-18.8L89.39-18.8Q89.09-19.3 88.69-19.55L88.69-19.55Q88.39-19.65 88.39-19.95L88.39-19.95Q88.39-20.85 90.94-21.7 93.49-22.55 94.66-22.55 95.84-22.55 95.89-21.95L95.89-21.95Q95.89-20.95 95.61-16.28 95.34-11.6 95.34-6.45 95.34-1.3 95.94-0.05L95.94-0.05Q96.09 0.2 96.09 0.45L96.09 0.45Q96.09 1.1 94.19 1.1 92.29 1.1 90.29 0.1L90.29 0.1Q89.79-0.15 89.79-1.5ZM99.13 0.35L99.13 0.35Q100.03-5.05 100.03-12.6 100.03-20.15 99.58-22.4L99.58-22.4Q99.58-23.05 101.08-23.05L101.08-23.05Q103.38-23.05 104.13-21.3L104.13-21.3Q104.18-21.15 104.38-21.15 104.58-21.15 104.68-21.25L104.68-21.25Q106.23-22.85 109.48-22.85 112.73-22.85 114.63-21.2 116.53-19.55 116.53-16.4L116.53-16.4Q116.53-14.5 116.21-11 115.88-7.5 115.88-5.8L115.88-5.8Q115.88-1.75 117.23 0.05L117.23 0.05Q117.43 0.3 117.43 0.55L117.43 0.55Q117.43 1.2 116.03 1.2L116.03 1.2Q109.83 1.2 109.83-4.3L109.83-4.3Q109.83-6.4 110.78-10.15 111.73-13.9 111.73-15.85L111.73-15.85Q111.73-19.85 108.43-19.85L108.43-19.85Q106.83-19.85 106.01-18.9 105.18-17.95 105.08-16.73 104.98-15.5 104.98-12.1L104.98-12.1Q104.98-6.9 105.33-3.05L105.33-3.05 105.43-1.95Q105.43-0.55 103.61 0.23 101.78 1 100.46 1 99.13 1 99.13 0.35ZM124.23-26.75L124.23-26.75 123.03-26.8Q121.68-26.8 121.28-26.15L121.28-26.15Q121.18-26 121.03-26L121.03-26Q120.38-26 120.38-28.23 120.38-30.45 121.06-31.05 121.73-31.65 123.41-31.65 125.08-31.65 125.68-31.08 126.28-30.5 126.28-29.15 126.28-27.8 125.83-27.28 125.38-26.75 124.23-26.75ZM120.23-1.5L120.23-1.5 120.78-13.15Q120.78-17.3 119.83-18.8L119.83-18.8Q119.53-19.3 119.13-19.55L119.13-19.55Q118.83-19.65 118.83-19.95L118.83-19.95Q118.83-20.85 121.38-21.7 123.93-22.55 125.11-22.55 126.28-22.55 126.33-21.95L126.33-21.95Q126.33-20.95 126.06-16.28 125.78-11.6 125.78-6.45 125.78-1.3 126.38-0.05L126.38-0.05Q126.53 0.2 126.53 0.45L126.53 0.45Q126.53 1.1 124.63 1.1 122.73 1.1 120.73 0.1L120.73 0.1Q120.23-0.15 120.23-1.5ZM128.83-19.5L128.83-19.5 128.98-21.5Q129.03-21.95 129.68-21.95L129.68-21.95 131.43-21.95 131.23-25.95 131.23-26.15Q131.23-27.3 132.98-28.35 134.73-29.4 136.18-29.4L136.18-29.4Q136.63-29.4 136.63-29L136.63-29 136.63-28.95Q136.43-27.6 136.23-22L136.23-22Q138.43-22 139.03-22.1 139.63-22.2 139.68-22.2L139.68-22.2Q140.03-22.2 140.03-21.6 140.03-21 139.48-20.08 138.93-19.15 138.28-19.1L138.28-19.1 136.18-19.1Q136.13-17.4 136.13-13.38 136.13-9.35 136.2-6.75 136.28-4.15 136.38-2.83 136.48-1.5 136.6-0.7 136.73 0.1 136.8 0.45 136.88 0.8 136.88 0.9L136.88 0.9Q136.88 1.4 136.23 1.45L136.23 1.45Q134.28 1.45 132.35 0.9 130.43 0.35 130.43-1L130.43-1Q131.48-9.4 131.48-19.05L131.48-19.05Q130.13-19.05 129.43-18.95L129.43-18.95 129.38-18.95Q128.93-18.95 128.83-19.5ZM150.13 13.85L150.13 13.85Q150.13 14.45 149.53 14.45L149.53 14.45 149.48 14.45Q147.83 14.45 145.75 13.3 143.68 12.15 143.68 10.65 143.68 9.15 145.58 5.43 147.48 1.7 147.48 0.45L147.48 0.45Q147.48-0.9 146.18-4.4L146.18-4.4Q144.53-8.95 143.55-11.8 142.58-14.65 141.45-16.82 140.33-19 139.83-19.4L139.83-19.4 139.33-19.75Q138.78-20.05 138.78-20.4L138.78-20.4Q138.78-21.1 140.95-21.83 143.13-22.55 144.78-22.55L144.78-22.55Q145.53-22.55 146.03-21.35L146.03-21.35Q146.93-19 147.98-14.85L147.98-14.85Q150.53-6.35 151.18-6.35L151.18-6.35Q151.63-6.35 153-9.85 154.38-13.35 154.38-15.5L154.38-15.5Q154.38-19.25 152.18-19.9L152.18-19.9Q151.68-20 151.68-20.4L151.68-20.4Q151.68-21.3 154.03-22.13 156.38-22.95 158.28-22.95L158.28-22.95Q159.93-22.95 159.93-20.8L159.93-20.8Q159.93-19.15 159.23-16.95 158.53-14.75 157.93-13.48 157.33-12.2 154.95-7.58 152.58-2.95 151.03 0.55L151.03 0.55Q149.33 4.75 149.33 9.1L149.33 9.1Q149.33 11.4 149.73 12.55 150.13 13.7 150.13 13.85Z" opacity="1" transform="matrix(1,0,0,1,0,0)" fill="#010c80" class="wordmark-text-0" data-fill-palette-color="primary" id="text-0"></path></svg></g></svg></g><g transform="matrix(1,0,0,1,0,154.98484222071565)"><svg viewBox="0 0 232.20979200000002 13.518847896019496" height="13.518847896019496" width="232.20979200000002"><g transform="matrix(1,0,0,1,0,0)"><svg width="232.20979200000002" viewBox="4.6 -37.5 738.52 43" height="13.518847896019496" data-palette-color="#77d4fc"><path d="M4.6 0L4.6-35 29.6-35 29.6-29.95 10.5-29.95 10.5-20.1 27.6-20.1 27.6-15.1 10.5-15.1 10.5-5.05 30.2-5.05 30.2 0 4.6 0ZM56.75 0L56.75-15Q56.75-18.1 55.05-19.88 53.35-21.65 50.35-21.65L50.35-21.65Q46.8-21.6 44.77-19.15 42.75-16.7 42.75-13.05L42.75-13.05 41.15-13.05Q41.15-18 42.55-21 43.95-24 46.52-25.38 49.1-26.75 52.6-26.75L52.6-26.75Q55.7-26.75 57.92-25.5 60.15-24.25 61.32-21.98 62.5-19.7 62.5-16.5L62.5-16.5 62.5 0 56.75 0ZM37.05 0L37.05-26.55 42.8-26.55 42.8 0 37.05 0ZM80.35-26.8L80.35-26.8Q84.05-26.8 86.62-25.18 89.2-23.55 90.57-20.53 91.95-17.5 91.9-13.3L91.9-13.3Q91.95-9.1 90.6-6.05 89.25-3 86.67-1.38 84.1 0.25 80.45 0.25L80.45 0.25Q76.65 0.25 73.77-1.48 70.9-3.2 69.3-6.28 67.7-9.35 67.7-13.35L67.7-13.35Q67.7-17.35 69.3-20.38 70.9-23.4 73.75-25.1 76.6-26.8 80.35-26.8ZM81.65-22.15L81.65-22.15Q79.25-22.15 77.4-21 75.55-19.85 74.52-17.82 73.5-15.8 73.45-13.2L73.45-13.2Q73.5-10.6 74.52-8.6 75.55-6.6 77.4-5.45 79.25-4.3 81.65-4.3L81.65-4.3Q84.05-4.3 85.9-5.45 87.75-6.6 88.77-8.6 89.8-10.6 89.8-13.2L89.8-13.2Q89.8-15.85 88.77-17.85 87.75-19.85 85.9-21 84.05-22.15 81.65-22.15ZM89.8 0L89.8-37.1 95.55-37.1 95.55 0 89.8 0ZM104.54 0L104.54-37.1 110.29-37.1 110.29 0 104.54 0ZM121.19-15.2L137.44-15.2Q137.34-17.45 136.42-19.03 135.49-20.6 133.84-21.48 132.19-22.35 130.04-22.35L130.04-22.35Q127.64-22.35 125.87-21.25 124.09-20.15 123.09-18.18 122.09-16.2 122.09-13.55L122.09-13.55Q122.09-10.7 123.17-8.6 124.24-6.5 126.17-5.35 128.09-4.2 130.59-4.2L130.59-4.2Q135.04-4.2 138.09-7.35L138.09-7.35 141.14-4.3Q139.19-2.15 136.39-0.98 133.59 0.2 130.14 0.2L130.14 0.2Q126.04 0.2 122.99-1.5 119.94-3.2 118.24-6.23 116.54-9.25 116.54-13.25L116.54-13.25Q116.54-17.25 118.24-20.28 119.94-23.3 122.99-25 126.04-26.7 129.99-26.75L129.99-26.75Q134.69-26.75 137.54-24.83 140.39-22.9 141.59-19.4 142.79-15.9 142.44-11.1L142.44-11.1 121.19-11.1 121.19-15.2ZM165.69-24.15L163.59-20.1Q161.84-21.15 159.76-21.78 157.69-22.4 155.94-22.4L155.94-22.4Q154.24-22.4 153.14-21.75 152.04-21.1 152.04-19.6L152.04-19.6Q152.04-18.35 153.06-17.63 154.09-16.9 155.69-16.4 157.29-15.9 159.09-15.35 160.89-14.8 162.51-13.93 164.14-13.05 165.14-11.55 166.14-10.05 166.14-7.6L166.14-7.6Q166.14-4.9 164.71-3.18 163.29-1.45 160.96-0.63 158.64 0.2 155.94 0.2L155.94 0.2Q153.04 0.2 150.14-0.75 147.24-1.7 145.24-3.5L145.24-3.5 147.29-7.4Q149.04-5.85 151.54-4.98 154.04-4.1 156.19-4.1L156.19-4.1Q157.44-4.1 158.41-4.42 159.39-4.75 159.96-5.4 160.54-6.05 160.54-7.1L160.54-7.1Q160.54-8.5 159.54-9.3 158.54-10.1 156.94-10.63 155.34-11.15 153.54-11.68 151.74-12.2 150.16-13.05 148.59-13.9 147.59-15.35 146.59-16.8 146.59-19.2L146.59-19.2Q146.59-21.9 147.99-23.58 149.39-25.25 151.61-26.03 153.84-26.8 156.39-26.8L156.39-26.8Q158.89-26.8 161.39-26.1 163.89-25.4 165.69-24.15L165.69-24.15ZM189.19-24.15L187.09-20.1Q185.34-21.15 183.26-21.78 181.19-22.4 179.44-22.4L179.44-22.4Q177.74-22.4 176.64-21.75 175.54-21.1 175.54-19.6L175.54-19.6Q175.54-18.35 176.56-17.63 177.59-16.9 179.19-16.4 180.79-15.9 182.59-15.35 184.39-14.8 186.01-13.93 187.64-13.05 188.64-11.55 189.64-10.05 189.64-7.6L189.64-7.6Q189.64-4.9 188.21-3.18 186.79-1.45 184.46-0.63 182.14 0.2 179.44 0.2L179.44 0.2Q176.54 0.2 173.64-0.75 170.74-1.7 168.74-3.5L168.74-3.5 170.79-7.4Q172.54-5.85 175.04-4.98 177.54-4.1 179.69-4.1L179.69-4.1Q180.94-4.1 181.91-4.42 182.89-4.75 183.46-5.4 184.04-6.05 184.04-7.1L184.04-7.1Q184.04-8.5 183.04-9.3 182.04-10.1 180.44-10.63 178.84-11.15 177.04-11.68 175.24-12.2 173.66-13.05 172.09-13.9 171.09-15.35 170.09-16.8 170.09-19.2L170.09-19.2Q170.09-21.9 171.49-23.58 172.89-25.25 175.11-26.03 177.34-26.8 179.89-26.8L179.89-26.8Q182.39-26.8 184.89-26.1 187.39-25.4 189.19-24.15L189.19-24.15ZM233.03-31.85L230.58-26.9Q228.68-28.1 226.83-28.8 224.98-29.5 223.33-29.8 221.68-30.1 220.33-30.1L220.33-30.1Q217.73-30.1 216.18-29.1 214.63-28.1 214.63-26.2L214.63-26.2Q214.63-24.5 215.66-23.43 216.68-22.35 218.36-21.68 220.03-21 222.06-20.4 224.08-19.8 226.08-19.07 228.08-18.35 229.78-17.2 231.48-16.05 232.48-14.28 233.48-12.5 233.48-9.8L233.48-9.8Q233.48-6.7 231.78-4.42 230.08-2.15 227.11-0.9 224.13 0.35 220.28 0.35L220.28 0.35Q217.53 0.35 214.93-0.38 212.33-1.1 210.06-2.35 207.78-3.6 205.98-5.25L205.98-5.25 208.53-10.1Q210.33-8.45 212.36-7.3 214.38-6.15 216.46-5.55 218.53-4.95 220.38-4.95L220.38-4.95Q223.48-4.95 225.21-6.15 226.93-7.35 226.93-9.5L226.93-9.5Q226.93-11.25 225.91-12.33 224.88-13.4 223.21-14.1 221.53-14.8 219.51-15.35 217.48-15.9 215.46-16.63 213.43-17.35 211.76-18.45 210.08-19.55 209.06-21.3 208.03-23.05 208.03-25.75L208.03-25.75Q208.03-28.7 209.63-30.88 211.23-33.05 214.11-34.25 216.98-35.45 220.78-35.45L220.78-35.45Q224.18-35.45 227.38-34.45 230.58-33.45 233.03-31.85L233.03-31.85ZM240.28 0L240.28-37.1 246.03-37.1 246.03 0 240.28 0ZM245.58-13.9L257.78-26.55 264.38-26.55 245.58-7.05 245.58-13.9ZM249.73-13.65L253.98-17.1 265.13 0 258.33 0 249.73-13.65ZM269.78 0L269.78-26.55 275.48-26.55 275.48 0 269.78 0ZM272.63-37.5L272.63-37.5Q274.08-37.5 275.03-36.55 275.98-35.6 275.98-34.15L275.98-34.15Q275.98-32.75 275.03-31.78 274.08-30.8 272.63-30.8L272.63-30.8Q271.23-30.8 270.25-31.78 269.28-32.75 269.28-34.15L269.28-34.15Q269.28-35.6 270.25-36.55 271.23-37.5 272.63-37.5ZM284.22 0L284.22-37.1 289.97-37.1 289.97 0 284.22 0ZM298.97 0L298.97-37.1 304.72-37.1 304.72 0 298.97 0ZM330.72-24.15L328.62-20.1Q326.87-21.15 324.79-21.78 322.72-22.4 320.97-22.4L320.97-22.4Q319.27-22.4 318.17-21.75 317.07-21.1 317.07-19.6L317.07-19.6Q317.07-18.35 318.09-17.63 319.12-16.9 320.72-16.4 322.32-15.9 324.12-15.35 325.92-14.8 327.54-13.93 329.17-13.05 330.17-11.55 331.17-10.05 331.17-7.6L331.17-7.6Q331.17-4.9 329.74-3.18 328.32-1.45 325.99-0.63 323.67 0.2 320.97 0.2L320.97 0.2Q318.07 0.2 315.17-0.75 312.27-1.7 310.27-3.5L310.27-3.5 312.32-7.4Q314.07-5.85 316.57-4.98 319.07-4.1 321.22-4.1L321.22-4.1Q322.47-4.1 323.44-4.42 324.42-4.75 324.99-5.4 325.57-6.05 325.57-7.1L325.57-7.1Q325.57-8.5 324.57-9.3 323.57-10.1 321.97-10.63 320.37-11.15 318.57-11.68 316.77-12.2 315.19-13.05 313.62-13.9 312.62-15.35 311.62-16.8 311.62-19.2L311.62-19.2Q311.62-21.9 313.02-23.58 314.42-25.25 316.64-26.03 318.87-26.8 321.42-26.8L321.42-26.8Q323.92-26.8 326.42-26.1 328.92-25.4 330.72-24.15L330.72-24.15ZM337.37-2.3L338.72 0.35Q336.82 0.35 335.94-0.58 335.07-1.5 335.07-2.7L335.07-2.7Q335.07-4.05 335.94-4.9 336.82-5.75 338.17-5.75L338.17-5.75Q339.37-5.75 340.29-4.95 341.22-4.15 341.22-2.7L341.22-2.7Q341.22-2 340.94-1.4 340.67-0.8 340.37-0.2L340.37-0.2 337.52 5.5 334.57 5.5 337.37-2.3ZM361.51 0L361.51-35 367.41-35 367.41 0 361.51 0ZM395.96 0L395.96-15Q395.96-18.1 394.26-19.88 392.56-21.65 389.56-21.65L389.56-21.65Q386.01-21.6 383.98-19.15 381.96-16.7 381.96-13.05L381.96-13.05 380.36-13.05Q380.36-18 381.76-21 383.16-24 385.73-25.38 388.31-26.75 391.81-26.75L391.81-26.75Q394.91-26.75 397.13-25.5 399.36-24.25 400.53-21.98 401.71-19.7 401.71-16.5L401.71-16.5 401.71 0 395.96 0ZM376.26 0L376.26-26.55 382.01-26.55 382.01 0 376.26 0ZM410.51 0L410.51-28.2Q410.51-31.35 411.83-33.38 413.16-35.4 415.26-36.38 417.36-37.35 419.66-37.35L419.66-37.35Q420.86-37.35 422.08-37.02 423.31-36.7 424.36-36.15L424.36-36.15 423.16-31.75Q422.46-32.05 421.58-32.33 420.71-32.6 419.81-32.6L419.81-32.6Q418.86-32.6 418.03-32.23 417.21-31.85 416.71-31.03 416.21-30.2 416.21-28.9L416.21-28.9 416.21 0 410.51 0ZM407.01-21.5L407.01-25.6 423.16-25.6 423.16-21.5 407.01-21.5ZM427.15 0L427.15-26.55 432.85-26.55 432.85 0 427.15 0ZM430-37.5L430-37.5Q431.45-37.5 432.4-36.55 433.35-35.6 433.35-34.15L433.35-34.15Q433.35-32.75 432.4-31.78 431.45-30.8 430-30.8L430-30.8Q428.6-30.8 427.63-31.78 426.65-32.75 426.65-34.15L426.65-34.15Q426.65-35.6 427.63-36.55 428.6-37.5 430-37.5ZM461.05 0L461.05-15Q461.05-18.1 459.35-19.88 457.65-21.65 454.65-21.65L454.65-21.65Q451.1-21.6 449.08-19.15 447.05-16.7 447.05-13.05L447.05-13.05 445.45-13.05Q445.45-18 446.85-21 448.25-24 450.83-25.38 453.4-26.75 456.9-26.75L456.9-26.75Q460-26.75 462.23-25.5 464.45-24.25 465.63-21.98 466.8-19.7 466.8-16.5L466.8-16.5 466.8 0 461.05 0ZM441.35 0L441.35-26.55 447.1-26.55 447.1 0 441.35 0ZM474.5 0L474.5-26.55 480.2-26.55 480.2 0 474.5 0ZM477.35-37.5L477.35-37.5Q478.8-37.5 479.75-36.55 480.7-35.6 480.7-34.15L480.7-34.15Q480.7-32.75 479.75-31.78 478.8-30.8 477.35-30.8L477.35-30.8Q475.95-30.8 474.97-31.78 474-32.75 474-34.15L474-34.15Q474-35.6 474.97-36.55 475.95-37.5 477.35-37.5ZM495.44-32.85L495.44-8.4Q495.44-6.25 496.19-5.48 496.94-4.7 498.3-4.7L498.3-4.7Q499.19-4.7 500.17-5 501.14-5.3 502.3-5.9L502.3-5.9 503.75-1.75Q502.19-0.8 500.55-0.28 498.89 0.25 497.19 0.25L497.19 0.25Q495.19 0.25 493.5-0.53 491.8-1.3 490.77-3 489.75-4.7 489.75-7.4L489.75-7.4 489.75-32.85 495.44-32.85ZM486-21.5L486-25.6 503.3-25.6 503.3-21.5 486-21.5ZM511.19-15.2L527.44-15.2Q527.34-17.45 526.42-19.03 525.49-20.6 523.84-21.48 522.19-22.35 520.04-22.35L520.04-22.35Q517.64-22.35 515.87-21.25 514.09-20.15 513.09-18.18 512.09-16.2 512.09-13.55L512.09-13.55Q512.09-10.7 513.17-8.6 514.24-6.5 516.17-5.35 518.09-4.2 520.59-4.2L520.59-4.2Q525.04-4.2 528.09-7.35L528.09-7.35 531.14-4.3Q529.19-2.15 526.39-0.98 523.59 0.2 520.14 0.2L520.14 0.2Q516.04 0.2 512.99-1.5 509.94-3.2 508.24-6.23 506.54-9.25 506.54-13.25L506.54-13.25Q506.54-17.25 508.24-20.28 509.94-23.3 512.99-25 516.04-26.7 519.99-26.75L519.99-26.75Q524.69-26.75 527.54-24.83 530.39-22.9 531.59-19.4 532.79-15.9 532.44-11.1L532.44-11.1 511.19-11.1 511.19-15.2ZM581.59-30.4L578.24-26.35Q576.24-28.25 573.56-29.33 570.89-30.4 568.14-30.4L568.14-30.4Q565.44-30.4 563.14-29.4 560.84-28.4 559.09-26.65 557.34-24.9 556.36-22.58 555.39-20.25 555.39-17.55L555.39-17.55Q555.39-14.85 556.36-12.5 557.34-10.15 559.09-8.38 560.84-6.6 563.16-5.6 565.49-4.6 568.19-4.6L568.19-4.6Q570.64-4.6 573.26-5.6 575.89-6.6 577.99-8.3L577.99-8.3 581.39-4.2Q579.64-2.85 577.36-1.8 575.09-0.75 572.64-0.18 570.19 0.4 567.79 0.4L567.79 0.4Q563.89 0.4 560.56-0.98 557.24-2.35 554.71-4.8 552.19-7.25 550.79-10.53 549.39-13.8 549.39-17.55L549.39-17.55Q549.39-21.3 550.81-24.53 552.24-27.75 554.79-30.2 557.34-32.65 560.76-34 564.19-35.35 568.14-35.35L568.14-35.35Q570.64-35.35 573.06-34.75 575.49-34.15 577.69-33.05 579.89-31.95 581.59-30.4L581.59-30.4ZM576.24-4.2L576.24-17.1 581.39-17.1 581.39-4.2 576.24-4.2ZM604.33-26.75L604.33-21.55Q601.48-21.7 599.41-20.58 597.33-19.45 596.21-17.45 595.08-15.45 595.08-12.85L595.08-12.85 593.48-13.05Q593.48-17.5 594.78-20.55 596.08-23.6 598.53-25.18 600.98-26.75 604.33-26.75L604.33-26.75ZM589.38 0L589.38-26.55 595.13-26.55 595.13 0 589.38 0ZM620.48-26.75L620.48-26.75Q624.58-26.75 627.71-25.05 630.83-23.35 632.58-20.33 634.33-17.3 634.33-13.3L634.33-13.3Q634.33-9.3 632.58-6.25 630.83-3.2 627.71-1.5 624.58 0.2 620.48 0.2L620.48 0.2Q616.38 0.2 613.23-1.5 610.08-3.2 608.33-6.25 606.58-9.3 606.58-13.3L606.58-13.3Q606.58-17.3 608.33-20.33 610.08-23.35 613.23-25.05 616.38-26.75 620.48-26.75ZM620.48-22.1L620.48-22.1Q618.08-22.1 616.23-20.98 614.38-19.85 613.36-17.85 612.33-15.85 612.33-13.25L612.33-13.25Q612.33-10.6 613.36-8.6 614.38-6.6 616.23-5.48 618.08-4.35 620.48-4.35L620.48-4.35Q622.88-4.35 624.71-5.48 626.53-6.6 627.56-8.6 628.58-10.6 628.58-13.25L628.58-13.25Q628.58-15.85 627.56-17.85 626.53-19.85 624.71-20.98 622.88-22.1 620.48-22.1ZM645.93 0L636.13-26.55 642.03-26.55 648.93-5.3 655.63-26.55 661.58-26.55 668.33-5.3 675.13-26.55 680.98-26.55 671.28 0 665.33 0 658.58-20.1 651.83 0 645.93 0ZM691.73-32.85L691.73-8.4Q691.73-6.25 692.48-5.48 693.23-4.7 694.58-4.7L694.58-4.7Q695.48-4.7 696.45-5 697.43-5.3 698.58-5.9L698.58-5.9 700.03-1.75Q698.48-0.8 696.83-0.28 695.18 0.25 693.48 0.25L693.48 0.25Q691.48 0.25 689.78-0.53 688.08-1.3 687.05-3 686.03-4.7 686.03-7.4L686.03-7.4 686.03-32.85 691.73-32.85ZM682.28-21.5L682.28-25.6 699.58-25.6 699.58-21.5 682.28-21.5ZM725.32 0L725.32-15Q725.32-18.1 723.62-19.88 721.92-21.65 718.92-21.65L718.92-21.65Q715.37-21.6 713.35-19.15 711.32-16.7 711.32-13.05L711.32-13.05 709.72-13.05Q709.72-18 711.12-21 712.52-24 715.1-25.38 717.67-26.75 721.17-26.75L721.17-26.75Q724.27-26.75 726.5-25.5 728.72-24.25 729.9-21.98 731.07-19.7 731.07-16.5L731.07-16.5 731.07 0 725.32 0ZM705.57 0L705.57-37.1 711.32-37.1 711.32 0 705.57 0ZM739.97-5.9L739.97-5.9Q741.32-5.9 742.22-5.03 743.12-4.15 743.12-2.75L743.12-2.75Q743.12-1.35 742.22-0.45 741.32 0.45 739.97 0.45L739.97 0.45Q738.62 0.45 737.72-0.45 736.82-1.35 736.82-2.75L736.82-2.75Q736.82-4.15 737.72-5.03 738.62-5.9 739.97-5.9Z" opacity="1" transform="matrix(1,0,0,1,0,0)" fill="#77d4fc" class="slogan-text-1" data-fill-palette-color="secondary" id="text-1"></path></svg></g></svg></g></svg></g></svg></g><g><svg viewBox="0 0 232.87209974132801 232.87209974132801" height="232.87209974132801" width="232.87209974132801"><g><svg xmlns="http://www.w3.org/2000/svg" xmlns:xlink="http://www.w3.org/1999/xlink" version="1.1" x="0" y="0" viewBox="2 2 60 60" style="enable-background:new 0 0 64 64;" xml:space="preserve" height="232.87209974132801" width="232.87209974132801" class="icon-icon-0" data-fill-palette-color="accent" id="icon-0"><path d="M31.164 2.014C18.942 2.43 9 12.552 9 24.578V25.451C9 32.68 12.447 41.198 17.603 46.763L17.943 49.588C16.784 50.289 16 51.549 16 53 16 55.206 17.794 57 20 57V58C20 60.206 21.794 62 24 62H40C42.206 62 44 60.206 44 58V57C46.206 57 48 55.206 48 53 48 51.549 47.216 50.289 46.057 49.587L46.397 46.762C51.553 41.197 55 32.68 55 25.451V24.074C55 18.207 52.628 12.684 48.321 8.521 43.818 4.168 37.554 1.799 31.164 2.014M11 25.451V24.578C11 13.695 19.952 4.532 31 4.033V9H30C27.794 9 26 10.794 26 13S27.794 17 30 17H31V28H25A1 1 0 0 0 24 29V30.5C24 31.878 22.879 33 21.5 33S19 31.878 19 30.5V29A1 1 0 0 0 18 28H11.152A23 23 0 0 1 11 25.451M11.467 30H17V30.5C17 32.981 19.019 35 21.5 35S26 32.981 26 30.5V30H31V35A1 1 0 0 0 32 36H34C35.103 36 36 36.897 36 38S35.103 40 34 40H32A1 1 0 0 0 31 41V49H20C19.962 49 19.926 49.01 19.888 49.011L19.549 46.197A1 1 0 0 0 19.28 45.628C15.459 41.607 12.55 35.642 11.467 30M42 58C42 59.103 41.103 60 40 60H24C22.897 60 22 59.103 22 58V57H42zM44 55H20C18.897 55 18 54.103 18 53S18.897 51 20 51H44C45.103 51 46 51.897 46 53S45.103 55 44 55M44.72 45.628A1 1 0 0 0 44.451 46.197L44.112 49.011C44.074 49.01 44.038 49 44 49H33V42H34C36.206 42 38 40.206 38 38S36.206 34 34 34H33V30H40A1 1 0 0 0 41 29V28C41 26.897 41.897 26 43 26S45 26.897 45 28V29A1 1 0 0 0 46 30H52.533C51.45 35.642 48.541 41.607 44.72 45.628M53 25.451C53 26.28 52.947 27.133 52.848 28H47C47 25.794 45.206 24 43 24S39 25.794 39 28H33V16A1 1 0 0 0 32 15H30C28.897 15 28 14.103 28 13S28.897 11 30 11H32A1 1 0 0 0 33 10V4.039C38.275 4.271 43.172 6.326 46.932 9.958 50.845 13.741 53 18.753 53 24.073z" fill="#77d4fc" data-fill-palette-color="accent"></path><path d="M43.256 11C43.255 11 43.255 11 43.256 11 42.346 11 41.49 11.346 40.828 11.978 39.466 10.678 37.178 10.723 35.86 12.093 34.49 13.52 34.49 15.842 35.86 17.269L40.106 21.692A1 1 0 0 0 41.55 21.692L45.795 17.269C47.167 15.842 47.167 13.519 45.796 12.092A3.5 3.5 0 0 0 43.256 11M44.353 15.884L40.829 19.556 37.305 15.884A1.755 1.755 0 0 1 37.305 13.477 1.5 1.5 0 0 1 38.401 13C38.814 13 39.205 13.169 39.5 13.478L40.106 14.11C40.483 14.504 41.172 14.504 41.549 14.11L42.154 13.479A1.52 1.52 0 0 1 43.255 13C43.667 13 44.058 13.17 44.354 13.478A1.754 1.754 0 0 1 44.353 15.884" fill="#77d4fc" data-fill-palette-color="accent"></path><path d="M21.586 44L24.293 46.707A1 1 0 0 0 26 46V43.964A3.505 3.505 0 0 0 29 40.5C29 38.57 27.43 37 25.5 37H21.5C19.57 37 18 38.57 18 40.5S19.57 44 21.5 44zM20 40.5C20 39.673 20.673 39 21.5 39H25.5C26.327 39 27 39.673 27 40.5S26.327 42 25.5 42H25A1 1 0 0 0 24 43V43.586L22.707 42.293A1 1 0 0 0 22 42H21.5C20.673 42 20 41.327 20 40.5" fill="#77d4fc" data-fill-palette-color="accent"></path><path d="M21 23.897L23.482 25.794A1 1 0 0 0 25.045 24.705L24.071 21.551 26.607 19.614A0.998 0.998 0 0 0 26 17.82H22.918L21.955 14.705A1 1 0 0 0 20.045 14.705L19.082 17.82H16A1 1 0 0 0 15.393 19.615L17.929 21.552 16.955 24.706A1 1 0 0 0 18.518 25.795zM19.819 19.82A1 1 0 0 0 20.774 19.115L21 18.386 21.226 19.115A1 1 0 0 0 22.181 19.82H23.044L22.303 20.386A1 1 0 0 0 21.955 21.475L22.211 22.306 21.607 21.845A1 1 0 0 0 20.393 21.845L19.789 22.306 20.045 21.475A1 1 0 0 0 19.697 20.386L18.956 19.82z" fill="#77d4fc" data-fill-palette-color="accent"></path><polygon points="45,32 43,32 43,35 40,35 40,37 43,37 43,40 45,40 45,37 48,37 48,35 45,35 " fill="#77d4fc" data-fill-palette-color="accent"></polygon><rect x="4" y="2" width="2" height="2" fill="#77d4fc" data-fill-palette-color="accent"></rect><rect x="4" y="6" width="2" height="2" fill="#77d4fc" data-fill-palette-color="accent"></rect><rect x="6" y="4" width="2" height="2" fill="#77d4fc" data-fill-palette-color="accent"></rect><rect x="2" y="4" width="2" height="2" fill="#77d4fc" data-fill-palette-color="accent"></rect><rect x="58" y="2" width="2" height="2" fill="#77d4fc" data-fill-palette-color="accent"></rect><rect x="58" y="6" width="2" height="2" fill="#77d4fc" data-fill-palette-color="accent"></rect><rect x="60" y="4" width="2" height="2" fill="#77d4fc" data-fill-palette-color="accent"></rect><rect x="56" y="4" width="2" height="2" fill="#77d4fc" data-fill-palette-color="accent"></rect></svg></g></svg></g></svg></g><defs></defs></svg><rect width="395.52" height="139.97969437963255" fill="none" stroke="none" visibility="hidden"></rect></g></svg></g></svg>